<svg width="12" height="20" viewBox="0 0 12 20" fill="none" xmlns="http://www.w3.org/2000/svg">
<path d="M7.41421 19.3992C7.78929 19.0145 8 18.4928 8 17.9487C8 17.4047 7.78929 16.8829 7.41421 16.4982C7.03914 16.1136 6.53043 15.8974 6 15.8974C5.46957 15.8974 4.96086 16.1136 4.58579 16.4982C4.21071 16.8829 4 17.4047 4 17.9487C4 18.4928 4.21071 19.0145 4.58579 19.3992C4.96086 19.7839 5.46957 20 6 20C6.53043 20 7.03914 19.7839 7.41421 19.3992Z" fill="white"/>
<path d="M4.23223 3.82793C3.76339 4.30879 3.5 4.96098 3.5 5.64103V6.66667C3.5 7.07469 3.34196 7.46601 3.06066 7.75452C2.77935 8.04304 2.39782 8.20513 2 8.20513C1.60218 8.20513 1.22065 8.04304 0.939341 7.75452C0.658036 7.46601 0.5 7.07469 0.5 6.66667V5.64103C0.5 4.14493 1.07946 2.71012 2.11091 1.65222C3.14236 0.59432 4.54131 0 6 0C7.45869 0 8.85764 0.59432 9.88909 1.65222C10.9205 2.71012 11.5 4.14493 11.5 5.64103V5.89128C11.4999 7.45316 10.8949 8.95103 9.818 10.0554L7.06 12.8821C6.92268 13.0332 6.75707 13.1544 6.57308 13.2385C6.38908 13.3226 6.19045 13.3678 5.98904 13.3715C5.78764 13.3751 5.58758 13.3371 5.4008 13.2597C5.21403 13.1824 5.04436 13.0672 4.90192 12.9211C4.75949 12.775 4.6472 12.601 4.57175 12.4094C4.49631 12.2179 4.45926 12.0127 4.46282 11.8061C4.46637 11.5995 4.51045 11.3958 4.59244 11.2071C4.67442 11.0184 4.79263 10.8485 4.94 10.7077L7.696 7.87897C8.21 7.35179 8.5 6.6359 8.5 5.88923V5.64103C8.5 4.96098 8.23661 4.30879 7.76777 3.82793C7.29893 3.34707 6.66304 3.07692 6 3.07692C5.33696 3.07692 4.70107 3.34707 4.23223 3.82793Z" fill="white"/>
</svg>
