<svg width="166" height="165" viewBox="0 0 166 165" fill="none" xmlns="http://www.w3.org/2000/svg">
<g clip-path="url(#clip0_527_30661)">
<path d="M107.705 163.336C107.705 163.111 106.581 157.993 106.013 155.553C99.5085 127.604 101.787 138.338 96.0828 110.435C95.7026 108.565 94.8785 106.903 93.1642 106.035C91.306 105.024 89.334 104.238 87.2897 103.693C63.6968 98.204 17.4021 87.8038 15.5166 87.5286C14.1871 87.2314 12.7953 87.4143 11.5877 88.0448C10.2344 88.8545 9.81475 90.2678 9.4696 91.637C8.78537 94.3617 9.24153 97.0614 10.0018 99.6888C15.0096 117.011 20.1671 129.746 25.8218 145.286C25.9731 145.854 26.2944 146.363 26.7427 146.744C27.1911 147.125 27.7451 147.361 28.3307 147.418C43.871 150.401 70.2806 157.313 107.705 163.336Z" fill="#009BDE"/>
<path fill-rule="evenodd" clip-rule="evenodd" d="M69.2051 116.982C69.2052 110.257 72.4064 103.625 82.0101 106.027C91.1563 108.314 92.9469 113.618 92.8688 118.489C92.8688 127.521 86.1254 130.224 79.7233 129.329C74.6928 128.627 69.205 124.299 69.2051 116.982ZM82.467 124.756C82.467 124.756 74.7969 118.805 74.6928 117.896C74.6605 117.614 76.2117 117.744 77.4193 117.844C78.157 117.906 78.7665 117.957 78.8085 117.896C78.8587 117.825 78.5782 116.392 78.2675 114.805C77.8916 112.886 77.4715 110.74 77.5386 110.502C77.6614 110.069 83.3382 111.085 83.6012 111.189C83.7431 111.245 83.8776 113.238 84.0019 115.081C84.108 116.654 84.2067 118.117 84.2964 118.174C84.6209 118.242 85.4969 118.242 86.3579 118.241C87.3766 118.241 88.3742 118.24 88.4122 118.354C88.4915 118.584 82.9243 125.213 82.467 124.756Z" fill="white"/>
<path d="M14.7008 85.8818C42.3238 92.4056 44.2206 92.0901 82.4316 101.104C85.5372 101.836 88.6193 102.7 91.6588 103.663C92.998 104.02 94.2168 104.73 95.1882 105.718C96.1595 106.707 96.8478 107.938 97.1813 109.283C97.5208 110.429 97.7515 111.604 97.87 112.792C98.0761 116.013 108.025 158.015 108.048 158.112C108.475 159.946 108.843 161.794 109.192 163.643C109.411 164.794 109.237 164.998 108.062 164.832C78.7109 160.679 34.4286 149.998 27.0192 148.715C26.5068 148.657 26.023 148.449 25.6279 148.118C25.2327 147.786 24.9438 147.346 24.7969 146.852C22.1307 139.609 13.0427 116.429 8.55037 98.9658C7.84903 96.4483 7.73382 93.8037 8.21358 91.2348C8.98523 87.4936 10.7878 86.1464 14.6415 86.1411C14.6567 86.0537 14.6765 85.9672 14.7008 85.8818ZM107.705 163.336C107.705 163.111 106.581 157.992 106.013 155.553C99.5084 127.604 101.787 138.338 96.0827 110.435C95.7026 108.565 94.8785 106.903 93.1641 106.035C91.3059 105.024 89.3339 104.238 87.2896 103.693C63.6967 98.204 17.402 87.8038 15.5166 87.5285C14.187 87.2314 12.7952 87.4143 11.5876 88.0448C10.2343 88.8544 9.81467 90.2677 9.46951 91.6369C8.78529 94.3617 9.24144 97.0613 10.0017 99.6888C15.0095 117.011 20.167 129.746 25.8218 145.286C25.973 145.854 26.2943 146.363 26.7426 146.744C27.191 147.125 27.745 147.36 28.3306 147.418C43.8709 150.401 70.2805 157.313 107.705 163.336Z" fill="#009BDE"/>
<path d="M130.073 96.3472C125.975 95.3437 124.246 94.9195 123.915 94.8138C121.858 94.1577 121.853 94.1843 121.662 92.0374C121.531 90.5617 121.297 89.3902 119.821 88.8937C116.261 87.5672 112.524 86.7778 108.731 86.5514C106.983 86.4997 105.811 87.0448 105.087 88.6474C104.914 89.0275 103.969 88.6314 104.098 88.2133C104.63 86.4967 105.619 85.3426 107.623 85.1898C111.125 85.0011 114.63 85.5086 117.936 86.6829C118.669 86.9209 119.372 87.2653 120.105 87.5192C122.074 88.2034 122.934 89.6593 123.07 91.6724C123.175 93.2142 123.198 93.2279 124.717 93.5959C126.716 94.0804 128.718 94.5543 130.723 95.0175C131.628 95.2274 131.845 95.5186 131.554 96.386C130.196 100.434 128.696 104.439 127.483 108.524C126.101 113.178 117.919 143.313 112.202 163.303C111.546 165.597 110.121 165.294 110.458 163.991C110.869 162.405 111.186 160.789 111.626 159.209C130.644 90.8643 126.288 107.695 130.073 96.3472Z" fill="#009BDE"/>
<path d="M70.5698 56.0015C69.4535 54.3519 68.9202 54.2405 53.8647 44.6645C51.9489 43.1903 49.8805 41.9257 47.6951 40.8924C47.504 40.8195 47.4202 41.0697 47.5178 41.1976C49.0299 43.1427 69.7102 54.9752 69.3834 56.8689C64.1538 59.4429 57.3131 66.1844 55.5493 70.47C54.9933 71.8208 53.9971 73.7453 53.6608 75.1669C50.7992 74.5737 47.0288 73.6318 37.6742 66.9827C36.0187 65.8059 33.5534 63.9017 31.8409 62.4625C32.4394 57.3942 33.9571 52.8509 36.1204 48.9597C37.2802 46.966 38.9626 44.795 40.8008 43.4017C42.0517 42.4534 44.4587 41.7756 46.6916 41.1976C47.4944 40.9556 47.5975 40.183 46.6916 40.2916C36.2166 41.5687 31.588 53.626 31.0203 62.7278C31.0203 62.7826 31.0323 62.8368 31.0554 62.8865C31.0785 62.9363 31.1121 62.9804 31.154 63.0159C31.1958 63.0513 31.2449 63.0772 31.2978 63.0918C31.3506 63.1064 31.4061 63.1093 31.4602 63.1003C32.6953 64.5056 34.1441 65.7076 35.7533 66.6621C39.3559 69.2574 43.1661 71.5517 47.1453 73.5218C48.1859 74.0441 51.7903 75.9838 53.455 76.0292C53.5475 76.1028 53.6645 76.1386 53.7823 76.1294C53.9002 76.1202 54.0101 76.0667 54.0901 75.9797C55.5927 74.3163 54.8105 72.1993 59.5888 65.9885C62.2492 62.3339 65.8907 59.5079 70.0914 57.838C70.1731 57.8027 70.2459 57.7497 70.3047 57.6829C70.3636 57.6161 70.407 57.5372 70.4318 57.4517C70.4566 57.3662 70.4622 57.2763 70.4483 57.1884C70.4344 57.1005 70.4012 57.0167 70.3512 56.9431C70.5043 56.8466 70.6131 56.6935 70.654 56.5172C70.6949 56.3409 70.6647 56.1556 70.5698 56.0015Z" fill="white"/>
<path d="M35.0782 57.9892C38.7432 57.9707 42.2609 57.9046 45.8131 58.8066C46.2448 58.9152 51.4557 60.1886 51.1037 61.1124C50.925 61.5839 46.9802 62.3471 46.385 62.5574C45.0392 63.0358 44.3353 63.7843 45.8131 64.7095C47.1907 65.2729 49.5121 65.8317 51.2267 66.2097C53.0537 66.6125 53.0604 66.8861 54.9066 67.172C55.0342 67.2072 55.1706 67.1902 55.2857 67.1249C55.4008 67.0595 55.4852 66.9511 55.5204 66.8235C55.5556 66.6959 55.5386 66.5596 55.4733 66.4445C55.4079 66.3294 55.2995 66.2449 55.1719 66.2097C53.3849 65.6681 51.5483 65.2914 49.7282 64.8667C48.599 64.6888 47.4823 64.439 46.385 64.1188C46.11 63.9099 45.9272 63.4755 46.7974 63.3188C48.946 62.9297 52.4872 62.9298 52.1352 60.8086C51.973 59.812 50.8554 59.4738 50.0499 59.1796C45.2705 57.4074 40.1244 56.8565 35.0782 57.5768C34.8198 57.6111 34.8033 57.9892 35.0782 57.9892Z" fill="white"/>
<path d="M50.3352 49.653C50.4514 48.9892 50.3903 48.3065 50.1581 47.6739C49.9259 47.0413 49.5308 46.4812 49.0128 46.0502C48.4947 45.6193 47.8721 45.3327 47.2078 45.2194C46.5435 45.1062 45.8611 45.1704 45.2295 45.4054C42.6179 46.3251 42.7298 49.9328 44.5449 51.6509C45.0203 52.0387 45.5869 52.2986 46.191 52.406C46.795 52.5134 47.4165 52.4647 47.9965 52.2646C48.5764 52.0645 49.0957 51.7196 49.5049 51.2625C49.9142 50.8055 50.2 50.2515 50.3352 49.653Z" fill="white"/>
<path d="M128.903 26.7142C120.427 20.7389 111.519 15.7787 102.296 11.8999C102.12 11.8408 101.933 11.8555 101.764 11.9417C101.595 12.028 101.453 12.181 101.36 12.3776C98.9993 17.8901 96.8089 23.5765 94.6833 29.2409C92.5044 34.6266 90.6892 40.2307 89.2565 45.9945C89.1931 46.2848 89.5386 46.4806 89.6533 46.2038C93.1555 35.2899 94.6833 30.0129 102.06 12.8801C110.538 17.1115 120.089 21.9948 128.171 27.3283C122.741 38.1879 116.004 50.444 110.225 61.0234C104.152 55.8805 97.1845 51.3744 90.5467 47.9136C90.3737 47.8644 90.1923 47.9005 90.0401 48.0144C89.8878 48.1282 89.7765 48.311 89.7293 48.5248C89.682 48.7386 89.7024 48.967 89.7863 49.1625C89.8702 49.3579 90.011 49.5055 90.1796 49.5744C97.2212 52.429 103.856 56.6618 109.838 62.1151C110.026 62.2474 110.248 62.2832 110.456 62.2152C110.665 62.1473 110.844 61.9807 110.957 61.7505C117.017 50.5415 122.757 38.9646 129.19 28.0898C129.296 27.8592 129.326 27.5857 129.272 27.3283C129.218 27.0709 129.085 26.8503 128.903 26.7142Z" fill="white"/>
<path d="M101.132 50.5731C101.471 50.0039 101.844 49.4476 102.137 48.8544C100.872 48.5203 99.6435 48.0632 98.4681 47.4894C98.3877 47.446 97.5517 48.6727 97.6642 48.9058C97.8186 49.2467 98.1417 49.2772 101.132 50.5731Z" fill="white"/>
<path d="M104.157 49.4364C104.496 48.8672 104.869 48.3109 105.162 47.7177C103.897 47.3829 102.668 46.9258 101.493 46.3527C101.412 46.3093 100.576 47.536 100.689 47.7691C100.834 48.0875 101.02 48.0762 104.157 49.4364Z" fill="white"/>
<path d="M103.398 46.7927C103.737 46.2236 104.11 45.6673 104.403 45.074C103.138 44.7407 101.909 44.2835 100.734 43.7091C100.653 43.6673 99.8173 44.8924 99.9298 45.1255C100.084 45.4647 100.407 45.4969 103.398 46.7927Z" fill="white"/>
<path d="M106.422 45.657C106.761 45.0878 107.134 44.5315 107.427 43.9399C106.162 43.6053 104.933 43.1476 103.758 42.5733C103.677 42.5315 102.841 43.7566 102.954 43.9897C103.102 44.3145 103.285 44.2968 106.422 45.657Z" fill="white"/>
<path d="M105.289 43.0134C105.628 42.4459 106.002 41.888 106.295 41.2964C105.03 40.962 103.801 40.5043 102.626 39.9298C102.544 39.888 101.71 41.1131 101.822 41.3462C101.977 41.6886 102.3 41.7192 105.289 43.0134Z" fill="white"/>
<path d="M108.312 41.8767C108.653 41.3092 109.026 40.7513 109.319 40.1596C108.054 39.825 106.825 39.3673 105.65 38.793C105.568 38.7512 104.733 39.9763 104.846 40.2095C104.991 40.5294 105.177 40.5182 108.312 41.8767Z" fill="white"/>
<path d="M107.179 39.2349C107.519 38.6658 107.893 38.1095 108.186 37.5162C106.92 37.1829 105.691 36.7268 104.514 36.1544C104.432 36.111 103.597 37.3378 103.71 37.5709C103.864 37.9085 104.187 37.9391 107.179 39.2349Z" fill="white"/>
<path d="M110.2 38.0964C110.541 37.5289 110.914 36.971 111.207 36.3794C109.942 36.0448 108.713 35.587 107.538 35.0128C107.456 34.971 106.621 36.1961 106.734 36.4308C106.88 36.7556 107.063 36.7379 110.2 38.0964Z" fill="white"/>
<path d="M109.824 35.4549C110.163 34.8858 110.536 34.3295 110.829 33.7362C109.564 33.4022 108.335 32.945 107.16 32.3712C107.08 32.3278 106.244 33.5545 106.356 33.7877C106.51 34.1285 106.834 34.1591 109.824 35.4549Z" fill="white"/>
<path d="M114.366 26.3477C114.181 26.7672 113.97 27.1748 113.734 27.568C113.306 28.2674 112.858 28.1886 112.608 27.6773C112.473 27.3928 112.698 26.9748 113.261 25.8911C113.342 25.7304 112.297 25.2577 112.216 25.4297C111.39 27.1789 109.919 27.6436 109.305 29.1629C109.133 29.5952 109.072 30.0637 109.128 30.5255C109.184 30.9873 109.356 31.4276 109.626 31.8061C109.955 32.2173 110.397 32.5234 110.898 32.6868C111.399 32.8502 111.936 32.8638 112.444 32.7258C112.953 32.5877 113.41 32.3042 113.759 31.91C114.108 31.5159 114.335 31.0282 114.411 30.507C114.789 29.1404 114.38 28.1227 115.255 26.7223C115.366 26.5358 114.395 26.2786 114.366 26.3477ZM111.494 31.454C111.216 31.4432 110.952 31.3249 110.759 31.1239C110.565 30.9229 110.457 30.6549 110.457 30.376C110.457 30.097 110.565 29.829 110.759 29.628C110.952 29.427 111.216 29.3087 111.494 29.298C111.763 29.3212 112.014 29.4446 112.196 29.6435C112.379 29.8425 112.48 30.1027 112.48 30.3727C112.48 30.6428 112.379 30.9029 112.196 31.1019C112.014 31.3009 111.763 31.4242 111.494 31.4475V31.454Z" fill="white"/>
<path d="M112.708 24.7391C112.572 24.678 112.576 24.6089 112.657 24.506C113.242 23.7214 112.364 22.7375 112.843 22.1426C112.916 22.0188 113.013 21.9117 113.13 21.8283C113.247 21.745 113.38 21.6872 113.52 21.6588C113.661 21.6304 113.806 21.6321 113.946 21.6636C114.086 21.6952 114.217 21.756 114.332 21.842C115.345 22.1848 116.322 22.6252 117.25 23.1571C117.893 23.5912 117.864 24.1796 117.361 24.5398C116.967 24.8211 116.29 24.9256 116.025 25.2568C115.887 25.4752 115.787 25.7147 115.728 25.9658C115.231 25.6797 114.618 25.7327 114.834 25.4096C115.015 25.133 115.316 24.6057 115.194 24.2648C115.169 24.1837 115.127 24.1089 115.07 24.0453C115.014 23.9818 114.945 23.931 114.867 23.8965C114.79 23.8619 114.706 23.8443 114.621 23.8449C114.536 23.8455 114.452 23.8642 114.375 23.8999C114.091 24.1151 113.876 24.41 113.76 24.7472C113.528 25.2616 113.793 25.2359 112.708 24.7391Z" fill="white"/>
<path d="M47.6597 8.56513C45.4334 10.1059 43.1218 11.5194 40.7357 12.799C39.3412 9.85179 37.9636 6.90811 36.4479 4.01249C36.3979 3.92128 36.3142 3.85323 36.2147 3.82281C36.1152 3.79239 36.0078 3.80203 35.9153 3.84965C35.8228 3.89727 35.7526 3.97913 35.7196 4.07778C35.6865 4.17643 35.6933 4.28407 35.7385 4.37779C37.0257 7.58599 38.5201 10.7181 39.9444 13.8772C39.9795 13.9459 40.0279 14.0068 40.0869 14.0565C40.1459 14.1061 40.2143 14.1434 40.2879 14.1663C40.3616 14.1891 40.439 14.197 40.5158 14.1894C40.5925 14.1819 40.667 14.159 40.7347 14.1223C42.9855 13.0123 45.1761 11.7842 47.2972 10.4431C47.6718 10.2331 48.0278 9.99151 48.3611 9.72084C51.7914 12.9365 54.6436 16.7175 56.7934 20.899C59.0724 25.4038 60.6921 30.2128 61.6027 35.1785C61.6743 35.5012 62.2046 35.4741 62.1923 35.119C61.9081 26.645 56.8241 15.2571 48.8545 8.23266C48.7613 8.15336 48.65 8.09812 48.5305 8.07181C48.4109 8.04549 48.2868 8.04888 48.1688 8.0817C48.0509 8.11451 47.9429 8.17574 47.8541 8.26002C47.7653 8.3443 47.6986 8.44907 47.6597 8.56513Z" fill="white"/>
<path d="M44.8053 4.38775C42.1634 3.40579 39.401 2.78484 36.593 2.54169C36.6109 2.45988 36.6074 2.37481 36.5827 2.29476C36.5581 2.21472 36.5132 2.1424 36.4523 2.08484C36.3915 2.02728 36.3168 1.98642 36.2355 1.96624C36.1542 1.94607 36.0691 1.94726 35.9884 1.96969C33.9037 2.65594 29.0867 6.69357 27.5125 8.07356C24.8809 10.4208 22.4787 13.0132 20.3382 15.8156C20.0852 16.1395 20.6139 16.5645 20.8942 16.2676C23.2283 13.7555 25.7097 11.3846 28.3253 9.16734C33.4371 4.78599 34.8937 4.33387 36.1665 3.18687C36.1924 3.2262 36.226 3.25989 36.2653 3.28594C36.3045 3.31199 36.3486 3.32987 36.395 3.3385C45.4374 5.31227 45.5451 6.42985 46.9358 6.26209C47.2848 6.21843 47.3271 5.78665 47.1457 5.57114C46.4906 4.96699 45.6802 4.55721 44.8053 4.38775Z" fill="white"/>
<path d="M23.7676 19.3439C22.7903 18.2871 21.6396 17.405 20.3652 16.7356C20.0042 16.582 19.8173 17.0777 19.9927 17.3222C20.8216 18.288 21.9741 19.2376 22.9574 20.0457C28.7121 25.5911 32.5953 32.157 34.4006 39.9423C34.5507 40.5896 35.7519 40.5779 35.3307 38.9268C33.4188 31.4317 29.4073 24.638 23.7676 19.3439Z" fill="white"/>
<path d="M61.8388 35.2021C60.8177 35.4559 61.5598 35.444 56.1339 39.0812C55.6185 39.4268 55.8988 40.3707 56.7707 39.777C59.0446 38.2287 59.5417 37.8657 60.8631 36.901C61.3316 36.6217 61.7558 36.2432 62.0907 35.8055C62.2665 35.5177 62.2164 35.0997 61.8388 35.2021Z" fill="white"/>
<path d="M53.3305 34.6314C53.363 34.7201 53.3533 34.8221 53.3037 34.9147C53.254 35.0074 53.1685 35.0832 53.0658 35.1255C52.9631 35.1677 52.8518 35.173 52.7562 35.1401C52.6607 35.1073 52.5888 35.0389 52.5563 34.9502C47.8273 24.21 45.7637 22.8185 43.4652 18.3753C43.1871 17.8385 44.1365 17.3984 44.495 17.8069C46.4375 20.2306 48.0741 22.8651 49.3792 25.6695C50.8949 28.561 52.2142 31.5532 53.3305 34.6314Z" fill="white"/>
<path d="M42.6625 35.1603C42.7076 35.2726 42.7095 35.3959 42.6677 35.5032C42.6259 35.6104 42.5439 35.6928 42.4397 35.7322C42.3355 35.7716 42.2176 35.7648 42.112 35.7133C42.0064 35.6617 41.9218 35.5697 41.8767 35.4574C35.565 21.7775 33.2034 19.8323 30.2282 14.1322C29.8683 13.4435 30.8262 13.0191 31.2563 13.5607C33.6121 16.7521 35.6675 20.1645 37.3903 23.7449C39.3476 27.4567 41.1079 31.268 42.6625 35.1603Z" fill="white"/>
<path d="M33.9232 28.8263C33.825 28.852 33.7186 28.8343 33.6275 28.7769C33.5365 28.7195 33.4681 28.6273 33.4376 28.5205C33.4071 28.4136 33.4168 28.3009 33.4647 28.2072C33.5126 28.1135 33.5947 28.0464 33.693 28.0206C45.6916 24.0992 47.4459 22.1283 52.4568 20.1611C53.0623 19.923 53.3966 20.915 52.9157 21.2442C50.0874 23.0117 47.0786 24.4541 43.9359 25.5489C40.6722 26.8492 37.3292 27.9434 33.9232 28.8263Z" fill="white"/>
<path d="M29.7414 20.7445C29.6899 20.751 29.6261 20.7158 29.5641 20.6465C29.502 20.5773 29.4468 20.4796 29.4105 20.3752C29.3743 20.2707 29.36 20.1678 29.3708 20.0893C29.3816 20.0108 29.4166 19.963 29.4681 19.9565C35.6197 18.4343 36.2727 16.9153 38.7837 15.9739C39.087 15.8598 39.4525 16.839 39.2363 17.0595C37.935 18.2005 36.4733 19.0081 34.874 19.4696C33.2419 20.1003 31.5283 20.526 29.7414 20.7445Z" fill="white"/>
<path d="M37.7308 35.6691C37.6326 35.6948 37.5262 35.677 37.4351 35.6197C37.3441 35.5623 37.2758 35.4701 37.2452 35.3632C37.2147 35.2564 37.2244 35.1437 37.2723 35.05C37.3202 34.9562 37.4023 34.8891 37.5006 34.8634C49.4993 30.942 51.2535 28.9711 56.2644 27.0039C56.8699 26.7658 57.2042 27.7577 56.7233 28.0869C53.895 29.8545 50.8862 31.2968 47.7435 32.3917C44.4799 33.6919 41.1368 34.7862 37.7308 35.6691Z" fill="white"/>
<path d="M96.0265 65.2197C96.8175 65.1881 97.6035 65.3593 98.3097 65.717C98.3952 65.7725 98.456 65.8589 98.4796 65.9581C98.5031 66.0573 98.4875 66.1617 98.436 66.2497C98.5213 66.3053 98.5863 66.3872 98.6211 66.4829C98.656 66.5786 98.6588 66.6831 98.6292 66.7806C97.9224 68.9729 96.9625 71.2456 96.9719 74.6613C96.9979 83.8011 103.123 89.6417 100.589 101.389C100.375 102.381 99.1076 102.203 99.4467 101.265C100.341 98.7924 100.143 98.5585 100.206 95.9299C100.444 86.7782 95.2384 81.5002 95.9 73.1292C96.0107 70.8246 96.6468 68.5759 97.7596 66.5547C97.325 66.5603 97.0031 66.3981 95.389 66.3511C88.2854 66.1577 73.2904 68.8684 73.2066 68.8816C72.7925 68.9473 72.3662 68.9512 71.9595 69.0068C71.918 69.0133 71.8756 69.0083 71.8368 68.9923C71.3302 70.2767 70.9387 71.6035 70.6669 72.9572C69.2902 81.1652 73.9519 88.2149 75.2968 95.9299C75.459 96.8608 74.2698 96.9443 74.087 95.9299C73.2872 91.4941 71.3931 87.1267 70.2722 82.8904C69.3666 79.4568 68.8657 75.4505 69.7722 72.0161C70.0612 70.7783 70.5825 69.6066 71.3084 68.5632C71.3307 68.5247 71.3616 68.4918 71.3987 68.4671C71.4357 68.4425 71.478 68.4267 71.5222 68.4211C71.5664 68.4154 71.6113 68.4201 71.6533 68.4346C71.6954 68.4492 71.7336 68.4732 71.7649 68.505C71.7818 68.4867 71.8033 68.4732 71.8272 68.4659C72.3178 68.2767 72.8025 68.058 73.3263 67.9122C79.2456 66.2624 93.1364 65.0514 96.0265 65.2197Z" fill="white"/>
<path d="M93.4981 86.8454C92.4266 86.6363 91.5321 87.1926 82.9616 88.582C81.775 88.6948 80.6184 88.95 79.5336 89.3384C79.227 89.4879 79.4303 89.8385 79.7251 89.8871C81.3168 90.1416 88.7437 88.747 90.3101 88.4596C91.3748 88.2501 92.9071 88.1384 93.7275 87.5255C93.7993 87.4778 93.8523 87.4154 93.8805 87.3455C93.9087 87.2756 93.911 87.201 93.8871 87.1302C93.8632 87.0594 93.8141 86.9952 93.7453 86.9448C93.6766 86.8945 93.5909 86.86 93.4981 86.8454Z" fill="white"/>
<path d="M95.742 93.1844C95.2062 93.0731 94.6427 93.0688 94.1042 93.1719C93.0699 93.2807 85.7773 94.5683 84.5391 94.8072C83.2308 94.978 81.9543 95.2717 80.7381 95.6817C80.4082 95.82 80.377 96.2649 80.8019 96.272C82.0688 96.2476 83.3284 96.1149 84.5576 95.8764C85.7284 95.7035 93.1545 94.4911 94.112 94.2837C94.7402 94.2051 95.3333 94.0071 95.8379 93.7074C95.8881 93.6725 95.9265 93.6286 95.9496 93.5795C95.9727 93.5305 95.9798 93.4778 95.9703 93.4261C95.9609 93.3744 95.9351 93.3253 95.8952 93.2832C95.8554 93.241 95.8028 93.2071 95.742 93.1844Z" fill="white"/>
<path d="M87.4222 78.0798C88.085 78.7708 88.5597 79.6201 88.8009 80.5467C89.0076 81.3409 87.8635 81.695 87.4367 80.8816C86.7904 79.65 86.4698 78.2616 84.9143 77.7224C84.5927 77.6229 84.2544 77.5894 83.9196 77.624C83.5847 77.6585 83.2604 77.7604 82.9659 77.9235C82.6715 78.0866 82.413 78.3075 82.2061 78.573C81.9991 78.8385 81.848 79.1431 81.7618 79.4684C81.5289 80.4269 81.5167 81.4258 81.726 82.3897C81.8158 82.8031 81.3353 82.9057 81.1526 82.5423C80.6925 81.6274 80.571 80.5791 80.8095 79.5832C81.048 78.5873 81.6312 77.7078 82.4558 77.1005C82.0906 77.0189 81.7464 76.8623 81.4449 76.6406C81.1435 76.4189 80.8915 76.1369 80.7049 75.8126C80.4925 75.3426 80.4237 74.8203 80.5071 74.3113C80.5906 73.8024 80.8225 73.3294 81.1738 72.9518C81.5251 72.5742 81.9802 72.3088 82.4818 72.1889C82.9834 72.069 83.5093 72.1 83.9934 72.2779C84.4092 72.4262 84.7813 72.6762 85.0758 73.0051C85.3702 73.334 85.5777 73.7313 85.6792 74.161C85.7808 74.5906 85.7732 75.0388 85.6571 75.4647C85.5411 75.8907 85.3203 76.2808 85.0149 76.5995C85.9306 76.8791 86.7594 77.3888 87.4222 78.0798Z" fill="white"/>
</g>
<defs>
<clipPath id="clip0_527_30661">
<rect width="165" height="165" fill="white" transform="translate(0.5)"/>
</clipPath>
</defs>
</svg>
