<svg width="126" height="22" viewBox="0 0 126 22" fill="none" xmlns="http://www.w3.org/2000/svg">
<g clip-path="url(#clip0_3372_82332)">
<path d="M94.765 16.2099C96.8924 18.0206 100.088 17.0837 101.244 14.3815C102.448 11.5629 102.064 7.77184 99.0493 6.29646C97.0422 5.31418 91.6794 5.96509 91.6025 6.67122V20.1864H94.765V16.2099ZM94.765 13.5688V8.87246C95.875 8.32018 97.3419 8.45628 98.1069 9.14071C99.1656 10.0895 99.0335 12.3163 98.2646 13.4209C97.5706 14.419 95.5891 14.6773 94.765 13.5688Z" fill="black"/>
<path d="M27.2314 16.9043C33.5958 17.6459 36.2082 16.9181 37.0875 13.7425C38.1088 10.058 36.0465 4.26295 30.1889 6.9356V3.33984H27.2314V16.9043ZM30.1889 9.40707C32.4523 7.86067 34.5678 9.81339 34.5027 11.772C34.3963 14.9989 30.3426 14.6715 30.1889 14.135V9.40707Z" fill="black"/>
<path d="M57.5922 11.63L61.5769 6.33598H58.2941L55.1869 10.6438C55.1317 10.7187 55.039 10.7503 54.9503 10.7207C54.8616 10.6911 54.8044 10.6122 54.8044 10.5195L54.8024 3.33984H51.7149L51.7129 17.2396H54.8024V13.135C54.8024 13.0423 54.8596 12.9634 54.9483 12.9338C55.037 12.9042 55.1297 12.9338 55.1849 13.0087L58.3474 17.2416H61.7602L57.5962 11.8904C57.5351 11.8115 57.5331 11.7069 57.5922 11.63Z" fill="black"/>
<path d="M68.8206 11.7429L68.8127 13.8081C68.8087 14.2736 67.6692 15.0192 66.3758 14.6464C64.5442 14.1177 65.0863 11.1985 68.8206 11.7429ZM72.2965 16.9048L72.6534 15.0566C72.0599 14.8692 71.5611 14.5872 71.5828 13.8613C71.6971 10.0585 72.2669 8.12745 70.2796 6.77239C69.1084 5.97355 67.1151 5.7625 63.2488 6.61262L63.8758 8.7251C64.8872 8.60675 68.9783 7.56728 68.9428 9.77246C67.0304 9.71724 64.9976 9.7843 63.3553 10.9973C61.4645 12.3958 61.7622 15.3959 63.5248 16.6346C64.7177 17.4729 67.1408 17.5577 68.9073 15.9383C69.8675 17.1474 71.4192 17.321 72.2965 16.9048Z" fill="black"/>
<path d="M49.8933 15.0067C49.1579 14.8726 48.9528 14.6497 48.9528 13.8844L48.9548 6.33984H46.0151V13.2749C46.0151 14.1527 45.1102 14.632 44.286 14.6458C43.2352 14.6616 42.208 13.9633 42.204 12.8351V6.34182H39.2959V13.6892C39.4438 16.4111 42.1567 18.563 46.1748 16.1212C47.1547 17.2139 48.3909 17.1547 49.5443 16.9851L49.8933 15.0067Z" fill="black"/>
<path d="M77.4855 3.3125H74.4512V17.2024H77.4855V3.3125Z" fill="black"/>
<path d="M86.0227 11.7429L86.0148 13.8081C86.0109 14.2736 84.8713 15.0192 83.5779 14.6464C81.7463 14.1177 82.2885 11.1985 86.0227 11.7429ZM89.4987 16.9048L89.8555 15.0566C89.2621 14.8692 88.7633 14.5872 88.7849 13.8613C88.8993 10.0585 89.4691 8.12745 87.4817 6.77239C86.3106 5.97355 84.3173 5.7625 80.451 6.61262L81.0779 8.7251C82.0894 8.60675 86.1805 7.56728 86.145 9.77246C84.2325 9.71724 82.1998 9.7843 80.5574 10.9973C78.6666 12.3958 78.9644 15.3959 80.727 16.6346C81.9198 17.4729 84.3429 17.5577 86.1095 15.9383C87.0697 17.1474 88.6213 17.321 89.4987 16.9048Z" fill="black"/>
<path d="M109.688 11.7429L109.68 13.8081C109.676 14.2736 108.536 15.0192 107.243 14.6464C105.409 14.1177 105.952 11.1985 109.688 11.7429ZM113.164 16.9048L113.521 15.0566C112.927 14.8692 112.428 14.5872 112.45 13.8613C112.564 10.0585 113.134 8.12745 111.147 6.77239C109.976 5.97355 107.982 5.7625 104.116 6.61262L104.743 8.7251C105.754 8.60675 109.845 7.56728 109.81 9.77246C107.898 9.71724 105.865 9.7843 104.222 10.9973C102.332 12.3958 102.629 15.3959 104.392 16.6346C105.585 17.4729 108.008 17.5577 109.775 15.9383C110.735 17.1474 112.286 17.321 113.164 16.9048Z" fill="black"/>
<path d="M121.163 11.63L125.147 6.33598H121.864L118.757 10.6438C118.702 10.7187 118.609 10.7503 118.521 10.7207C118.432 10.6911 118.375 10.6122 118.375 10.5195L118.373 3.33984H115.285L115.283 17.2396H118.373V13.135C118.373 13.0423 118.43 12.9634 118.519 12.9338C118.607 12.9042 118.7 12.9338 118.755 13.0087L121.918 17.2416H125.331L121.166 11.8904C121.105 11.8115 121.105 11.7069 121.163 11.63Z" fill="black"/>
<path fill-rule="evenodd" clip-rule="evenodd" d="M1.67947 1.1834L4.83799 0.138009C5.27174 -0.00597925 5.69761 0.0374144 6.09587 0.262272C6.49217 0.48713 6.74848 0.832307 6.84706 1.27808L9.05132 11.1758C9.22482 11.9509 8.79304 12.7241 8.04185 12.9845L6.75439 13.4303C5.98546 13.6966 5.14556 13.3297 4.82024 12.5841L0.744927 3.28602C0.563539 2.86984 0.563539 2.44182 0.74887 2.02761C0.93223 1.61339 1.24769 1.32542 1.67947 1.1834Z" fill="#E3014D"/>
<path d="M9.64587 19.9263C10.9974 19.4057 11.6711 17.8877 11.1508 16.5356C10.6304 15.1836 9.11301 14.5095 7.76153 15.0301C6.41005 15.5507 5.73628 17.0687 6.25662 18.4208C6.77697 19.7728 8.29439 20.4469 9.64587 19.9263Z" fill="#E3014D"/>
<path fill-rule="evenodd" clip-rule="evenodd" d="M14.122 13.1645C14.0806 13.1881 13.7001 13.3499 13.2979 13.5077C12.5921 13.7858 12.2707 14.6103 12.5487 15.3164L13.1145 16.7504C13.2604 17.1231 13.5227 17.3894 13.8894 17.5452C14.2581 17.7011 14.5972 17.6518 14.9718 17.5117C18.0791 16.3638 20.0802 13.6339 19.7963 10.2472C19.5045 6.7639 16.9217 4.20564 13.7829 3.69478C12.6571 3.51135 11.7344 3.5863 10.6717 3.78157C10.4371 3.82496 10.0645 3.93345 9.93434 4.13266C9.80421 4.33188 9.76872 4.55279 9.82984 4.78357L10.5692 7.54893C10.6717 7.93355 11.0601 8.18405 11.4446 8.0874C12.042 7.93947 12.5704 7.93355 12.9568 7.96314C14.4138 8.07162 15.3563 9.2827 15.4647 10.5096C15.5771 11.7384 15.1571 12.5234 14.122 13.1645Z" fill="#E3014D"/>
</g>
<defs>
<clipPath id="clip0_3372_82332">
<rect width="125" height="22" fill="white" transform="translate(0.5)"/>
</clipPath>
</defs>
</svg>
