<svg width="126" height="28" viewBox="0 0 126 28" fill="none" xmlns="http://www.w3.org/2000/svg">
<g clip-path="url(#clip0_3372_82288)">
<path fill-rule="evenodd" clip-rule="evenodd" d="M67.3553 19.285C65.9858 20.6903 64.3486 21.3973 62.4499 21.3973C60.9145 21.3973 59.6102 21.0805 58.2789 20.2974V17.0739C59.3495 17.8089 60.6946 18.5089 62.0224 18.5089C64.7909 18.5089 66.4394 16.5813 66.4394 13.8477C66.4394 11.1125 64.7345 9.12712 61.9642 9.12712C60.7277 9.12712 59.7249 9.57687 58.9411 10.479C58.1017 11.4564 57.6672 12.8537 57.6672 14.7V27.4286H57.4586C57.0949 27.4277 56.735 27.3547 56.3993 27.2137C56.0637 27.0727 55.7589 26.8665 55.5024 26.6069C55.2459 26.3473 55.0427 26.0394 54.9043 25.7007C54.766 25.362 54.6953 24.9992 54.6962 24.633V14.2231C54.6962 9.80525 57.3648 6.23875 61.952 6.23875C64.2157 6.23875 66.0553 7.02187 67.45 8.59688C68.7612 10.0677 69.4104 11.9315 69.4104 14.175C69.4104 16.17 68.7248 17.8771 67.3553 19.285ZM99.5261 19.1765C98.1618 20.6579 96.4065 21.3973 94.2793 21.3973C92.033 21.3973 90.2021 20.6133 88.8092 19.0391C87.4987 17.5499 86.8488 15.6844 86.8488 13.4619C86.8488 9.527 89.8493 6.23875 93.7988 6.23875C95.322 6.23875 96.6446 6.56425 97.9802 7.30625V10.5612C96.9096 9.82625 95.5645 9.12625 94.2367 9.12625C91.4682 9.12625 89.8189 11.0547 89.8189 13.7891C89.8189 16.4859 91.5638 18.5098 94.2941 18.5098C95.5297 18.5098 96.5482 18.0408 97.3615 17.0966C98.1714 16.1577 98.592 14.7788 98.592 12.9272V2.79562C98.591 2.42942 98.6618 2.06661 98.8001 1.72793C98.9384 1.38925 99.1417 1.08131 99.3982 0.821717C99.6547 0.562119 99.9595 0.355938 100.295 0.214948C100.631 0.0739575 100.991 0.0009181 101.354 0L101.563 0V13.4024C101.563 15.7622 100.889 17.6943 99.5261 19.1765ZM107.916 4.80813C107.604 5.16162 107.157 5.32438 106.613 5.32438C105.592 5.32438 104.862 4.56313 104.862 3.5385C104.862 2.49025 105.578 1.78237 106.612 1.78237C107.607 1.78237 108.362 2.52875 108.362 3.5385C108.362 4.03725 108.217 4.466 107.916 4.80725V4.80813ZM123.013 12.9272C123.013 11.7416 122.57 10.8028 121.68 10.0923C120.878 9.45263 119.876 9.12712 118.657 9.12712C115.968 9.12712 114.241 11.2542 114.241 13.8784C114.241 16.4028 116.072 18.5098 118.629 18.5098C120.408 18.5098 121.359 17.458 122.374 16.1473V19.9246C121.857 20.3166 121.262 20.7445 120.656 20.9947C120.015 21.266 119.251 21.3973 118.367 21.3973C114.091 21.3973 111.27 17.8124 111.27 13.6701C111.27 11.543 111.923 9.78425 113.238 8.41313C114.632 6.95975 116.461 6.23875 118.702 6.23875C122.947 6.23875 125.985 8.70625 125.985 13.1644V21.1006H125.777C125.413 21.0997 125.053 21.0266 124.717 20.8856C124.381 20.7446 124.076 20.5383 123.82 20.2787C123.563 20.019 123.36 19.7109 123.222 19.3722C123.083 19.0334 123.012 18.6704 123.013 18.3041V12.9272ZM82.3388 12.075C81.9634 10.8999 81.4925 10.3215 80.4097 9.70988C77.835 8.25387 75.3002 9.49375 74.1219 12.0636L82.3388 12.075ZM80.0717 21.3526C78.1739 21.7612 76.3117 21.4463 74.4947 20.419C72.722 19.4171 71.5359 17.9279 70.9406 15.9591C69.738 11.9779 72.2015 7.54163 76.1648 6.468C78.1287 5.93513 80.0126 6.17663 81.8018 7.18813C84.7737 8.86987 85.8564 11.4704 85.6678 14.8216L73.697 14.7962C73.8734 16.163 74.7102 17.2323 75.8868 17.8973C77.0807 18.5719 78.1774 18.7338 79.1949 18.4135C80.3246 18.0548 81.2422 17.1211 81.9878 16.2522L84.427 18.0512C83.432 19.8537 82.0773 20.9204 80.0717 21.3517V21.3526ZM105.127 6.53625H108.098V21.1006H107.889C107.525 21.0997 107.165 21.0266 106.83 20.8856C106.494 20.7445 106.189 20.5383 105.932 20.2786C105.676 20.0189 105.473 19.7109 105.334 19.3721C105.196 19.0333 105.126 18.6704 105.127 18.3041V6.53537V6.53625ZM4.34831 21.0998C1.44162 21.0998 8.745e-06 19.0995 8.745e-06 16.3065V5.70762C-0.000905315 5.3413 0.0698449 4.97839 0.20822 4.6396C0.346595 4.30081 0.549884 3.99278 0.806482 3.7331C1.06308 3.47342 1.36796 3.26717 1.70371 3.12614C2.03947 2.98511 2.39952 2.91204 2.76332 2.91112H2.97187V6.53625H7.99188V9.42375H2.97187V16.6407C2.97187 17.8675 3.51237 18.2122 4.67157 18.2122H7.99102V21.0998H4.34918H4.34831ZM21.6042 19.2596C20.1357 20.6833 18.3717 21.3973 16.3227 21.3973C14.2919 21.3973 12.5374 20.6824 11.0698 19.2596C9.59686 17.8299 8.86259 16.0107 8.86259 13.818C8.86259 9.541 12.0899 6.23875 16.3227 6.23875C18.3534 6.23875 20.1131 6.95888 21.5895 8.393C23.0719 9.83062 23.8123 11.6445 23.8123 13.818C23.8123 16.0107 23.0771 17.8299 21.6051 19.2596H21.6042ZM35.4972 10.0406C35.061 10.78 34.723 11.3111 34.4849 11.6314C34.2234 11.9796 33.9644 12.2579 33.708 12.4504C35.7727 13.1259 36.5417 14.5731 36.5417 16.73V21.0998H36.3332C35.5986 21.0979 34.8949 20.8023 34.3767 20.2781C33.8585 19.7538 33.5683 19.0438 33.5699 18.3041V17.0266C33.5699 15.6301 32.9512 14.6825 31.4896 14.6825H28.7888V21.0998H28.5803C27.8459 21.0977 27.1425 20.802 26.6246 20.2777C26.1068 19.7535 25.8169 19.0436 25.8187 18.3041V2.79562C25.8177 2.42946 25.8883 2.06668 26.0265 1.728C26.1648 1.38932 26.3679 1.08138 26.6244 0.82177C26.8808 0.56216 27.1855 0.355966 27.5211 0.214965C27.8567 0.0739637 28.2166 0.000917978 28.5803 0L28.7888 0V11.7653H29.6674C30.6319 11.7653 31.2663 11.431 31.6312 10.7992L34.126 6.53713L37.5124 6.53363L35.4955 10.0406H35.4972ZM50.8345 19.2596C49.3659 20.6833 47.6019 21.3973 45.5529 21.3973C43.5221 21.3973 41.7686 20.6824 40.3 19.2596C38.8271 17.8299 38.0929 16.0107 38.0929 13.818C38.0929 9.541 41.3202 6.23875 45.5529 6.23875C47.5846 6.23875 49.3433 6.95888 50.8206 8.393C52.3022 9.83062 53.0425 11.6445 53.0425 13.818C53.0425 16.0107 52.3074 17.8299 50.8354 19.2596H50.8345ZM48.6899 10.4291C47.8713 9.562 46.8312 9.12712 45.5529 9.12712C42.8183 9.12712 41.182 11.144 41.182 13.818C41.182 16.4552 42.8574 18.5098 45.5529 18.5098C48.2493 18.5098 49.9238 16.4552 49.9238 13.818C49.9238 12.418 49.5085 11.2945 48.6899 10.4291ZM19.4605 10.4291C18.6419 9.562 17.6009 9.12712 16.3235 9.12712C13.5889 9.12712 11.9526 11.144 11.9526 13.818C11.9526 16.4552 13.628 18.5098 16.3235 18.5098C19.0191 18.5098 20.6944 16.4552 20.6944 13.818C20.6944 12.418 20.2791 11.2945 19.4605 10.4291Z" fill="#03AC0E"/>
</g>
<defs>
<clipPath id="clip0_3372_82288">
<rect width="126" height="28" fill="white"/>
</clipPath>
</defs>
</svg>
