<svg width="200" height="160" viewBox="0 0 200 160" fill="none" xmlns="http://www.w3.org/2000/svg">
<path d="M108.71 29.2399C109.186 31.9741 110.498 34.4916 112.466 36.442C113.258 37.1874 114.192 37.744 115.149 37.2139C116.106 36.6839 116.113 35.5939 115.915 34.5239C115.382 31.7653 113.945 29.265 111.832 27.4211C111.047 26.8082 110.225 26.2649 109.37 26.7585C108.515 27.2521 108.535 28.2592 108.71 29.2399Z" fill="#212121"/>
<path d="M143.333 36.909C145.234 34.4024 146.47 31.4523 146.924 28.3353C147.046 27.252 146.885 26.1654 145.881 25.738C144.878 25.3107 143.98 25.9335 143.294 26.7783C141.325 29.3328 140.158 32.4177 139.941 35.6402C139.898 36.634 140.066 37.6279 140.997 37.9592C141.927 38.2905 142.71 37.6908 143.333 36.909Z" fill="#212121"/>
<path d="M165.905 54.7067C168.302 54.226 170.505 53.0472 172.238 51.3176C173.004 50.549 173.641 49.6612 173.176 48.6673C172.71 47.6735 171.631 47.6039 170.555 47.7232C169.253 47.891 167.999 48.3232 166.87 48.9936C165.74 49.664 164.758 50.5585 163.984 51.6224C163.393 52.4241 162.892 53.2788 163.423 54.1203C163.954 54.9618 164.931 54.8889 165.905 54.7067Z" fill="#212121"/>
<path d="M166.848 85.8002C167.31 86.0128 167.831 86.0587 168.322 85.9301C168.813 85.8015 169.245 85.5063 169.545 85.0945C171.324 82.0335 162.495 78.1607 158.845 77.475C157.855 77.2928 156.865 77.3193 156.396 78.2005C154.855 81.0363 163.607 84.8825 166.848 85.8002Z" fill="#212121"/>
<path d="M139.364 94.3606C139.256 95.6221 139.402 96.8925 139.793 98.0962C140.184 99.2999 140.813 100.412 141.641 101.367C142.383 102.166 143.232 102.838 144.235 102.404C145.238 101.97 145.314 100.897 145.261 99.8069C145.209 97.4031 144.339 95.0895 142.796 93.2508C142.159 92.4855 141.476 91.7732 140.525 92.0813C139.575 92.3894 139.433 93.3634 139.364 94.3606Z" fill="#212121"/>
<path d="M105.542 61.5082C93.1586 60.723 80.3632 59.2952 63.7096 59.6629C52.1584 59.9147 40.5709 59.1329 32.1253 67.584C27.9503 71.7516 27.32 77.5756 26.9074 83.4857C26.4635 92.9186 26.6344 102.37 27.419 111.781C27.8249 118.383 28.9536 124.794 33.7655 129.399C39.5313 134.911 47.9207 134.368 55.5742 134.398C71.6404 134.451 87.2873 133.215 104.419 132.317C112.099 131.913 121.047 132.225 126.727 126.354C134.618 118.201 130.585 106.291 129.944 97.201C129.871 96.7106 129.617 96.2654 129.233 95.9531C128.85 95.6407 128.363 95.4836 127.87 95.5126C127.377 95.5417 126.912 95.7548 126.568 96.1101C126.223 96.4654 126.023 96.9372 126.007 97.4329C126.39 106.046 128.958 116.83 122.961 122.528C118.67 126.632 110.01 126.172 104.149 126.417C88.4688 127.08 71.8054 128.405 55.604 128.312C49.9208 128.289 42.0725 128.902 37.9768 124.969C34.4949 121.657 33.8018 116.27 33.4916 111.387C32.7166 102.243 32.5357 93.0576 32.9503 83.8899C33.2276 79.8548 33.5147 74.7199 36.3761 71.8311C43.3069 64.8575 54.2376 65.8679 63.9109 65.424C75.6536 64.8807 94.7098 64.7614 105.377 65.0927C105.809 65.0514 106.213 64.8547 106.513 64.5386C106.813 64.2225 106.989 63.8084 107.009 63.3724C107.029 62.9363 106.892 62.5076 106.622 62.1652C106.353 61.8227 105.969 61.5894 105.542 61.5082Z" fill="#212121"/>
<path d="M115.488 112.877C110.008 107.131 104.144 101.766 97.9368 96.8195C103.045 93.5332 107.801 89.7252 112.128 85.4564C112.367 85.3142 112.574 85.1231 112.734 84.8956C112.895 84.6681 113.006 84.4092 113.061 84.1357C113.115 83.8623 113.112 83.5804 113.05 83.3084C112.989 83.0364 112.872 82.7804 112.705 82.557C112.539 82.3335 112.328 82.1477 112.085 82.0116C111.843 81.8755 111.575 81.7921 111.298 81.7668C111.021 81.7416 110.743 81.7751 110.48 81.8651C110.217 81.9551 109.976 82.0996 109.772 82.2893C97.7817 89.9387 96.8246 90.6675 94.2603 92.0887C75.4912 102.468 73.2601 90.1805 42.2831 75.9054C42.0781 75.7818 41.8508 75.7002 41.6142 75.6655C41.3776 75.6308 41.1365 75.6436 40.9049 75.7032C40.6733 75.7628 40.4558 75.868 40.2651 76.0126C40.0743 76.1573 39.914 76.3385 39.7936 76.5459C39.6732 76.7532 39.595 76.9824 39.5635 77.2204C39.5321 77.4583 39.548 77.7001 39.6105 77.9317C39.6729 78.1634 39.7805 78.3803 39.9272 78.5699C40.0738 78.7595 40.2564 78.9179 40.4646 79.036C48.5023 85.1336 56.8491 90.8095 65.4713 96.041C61.9555 98.9347 58.6542 102.081 55.5934 105.456C48.2402 112.85 42.722 116.939 44.5108 119.297C45.953 121.186 50.0752 118.353 52.0059 116.978C57.5641 112.283 62.7769 107.19 67.6033 101.739C68.438 100.745 69.1939 99.6875 69.8641 98.5753C73.4469 100.759 77.5394 101.957 81.7299 102.049C85.9204 102.141 90.0611 101.123 93.7355 99.0987C95.1314 101.529 96.9345 103.7 99.0656 105.516C102.174 108.547 110.019 115.941 112.333 117.664C115.825 120.265 117.175 121.152 118.432 119.904C120.056 118.313 116.963 114.623 115.488 112.877Z" fill="#212121"/>
<path d="M137.715 57.0975C127.687 54.0045 126.211 69.611 132.451 71.7496C141.329 74.8072 145.744 59.5778 137.715 57.0975Z" fill="#FF6C7E"/>
<path d="M146.587 44.8547C114.749 31.2045 107.03 59.7585 110.958 70.8667C116.964 87.8308 142.866 92.0384 153.994 78.3186C155.917 75.7059 157.26 72.7079 157.931 69.5276C158.602 66.3473 158.586 63.0591 157.884 59.8856C157.181 56.7122 155.809 53.7277 153.86 51.1344C151.911 48.5411 149.431 46.3995 146.587 44.8547ZM147.216 65.4751C145.37 82.3057 124.111 82.7584 122.312 63.734C121.883 61.9129 121.914 60.013 122.4 58.2067C122.887 56.4005 123.814 54.745 125.097 53.3904C126.381 52.0358 127.98 51.0249 129.75 50.4496C131.52 49.8742 133.405 49.7525 135.234 50.0954C137.031 50.2976 138.77 50.8581 140.35 51.7441C141.929 52.6302 143.317 53.824 144.433 55.2559C145.548 56.6878 146.369 58.3291 146.847 60.0837C147.325 61.8383 147.45 63.6712 147.216 65.4751Z" fill="#FF6C7E"/>
</svg>
