<svg width="142" height="40" viewBox="0 0 142 40" fill="none" xmlns="http://www.w3.org/2000/svg">
<g clip-path="url(#clip0_184_690)">
<path d="M29.4619 5.00311L19.433 29.3737C18.2412 32.0208 16.1571 34.359 13.1027 34.359C10.079 34.359 7.87795 32.2426 6.79485 29.4649L1.27065 13.3422C0.708586 11.7005 1.10859 10.0671 2.52195 9.24211C3.93736 8.41711 5.52303 8.85655 6.66151 10.1977L13.1027 17.6227L24.0731 1.85857C25.1131 0.480121 26.7091 0.158828 28.2127 0.902985C29.6281 1.72798 30.104 3.38627 29.464 5.00311H29.4619Z" fill="#FF9100"/>
<path d="M46.854 12.2135H44.4216V7.67411C44.4216 6.44077 43.9363 5.8241 42.9656 5.8241C42.4974 5.8241 42.1262 6.00682 41.8522 6.37226C41.5781 6.73769 41.441 7.17735 41.441 7.69124V12.2135H38.9744V3.75141H41.304V4.71067C41.738 3.94555 42.4802 3.56298 43.5309 3.56298C44.7071 3.56298 45.5293 4.08829 45.9975 5.13892C46.3744 4.56793 46.7798 4.16252 47.2138 3.92271C47.6477 3.67147 48.1787 3.54585 48.8068 3.54585C49.8118 3.54585 50.6226 3.85419 51.2392 4.47086C51.8673 5.08753 52.1814 6.12673 52.1814 7.58846V12.2135H49.6976V7.63985C49.6976 6.46361 49.2693 5.87549 48.4128 5.87549C47.9446 5.87549 47.5678 6.0525 47.2823 6.40651C46.9968 6.74911 46.854 7.17164 46.854 7.67411V12.2135Z" fill="#9E9E9E"/>
<path d="M62.018 7.69124C62.018 8.05668 61.9837 8.41069 61.9152 8.75328H55.9883C56.0568 9.24434 56.2966 9.63261 56.7078 9.9181C57.1189 10.1922 57.5814 10.3292 58.0953 10.3292C58.9632 10.3292 59.7283 10.0666 60.3906 9.54125L61.5383 11.1343C60.659 11.9794 59.4656 12.4019 57.9582 12.4019C56.5879 12.4019 55.463 12.0251 54.5837 11.2714C53.7158 10.5062 53.2818 9.41563 53.2818 7.99958C53.2818 6.60636 53.7272 5.52148 54.6179 4.74493C55.5201 3.95697 56.5993 3.56298 57.8554 3.56298C59.0888 3.56298 60.088 3.92842 60.8531 4.65928C61.6297 5.37873 62.018 6.38938 62.018 7.69124ZM59.0031 6.01253C58.6834 5.72704 58.278 5.58429 57.7869 5.58429C57.2959 5.58429 56.8848 5.72704 56.5536 6.01253C56.2224 6.28661 56.034 6.69201 55.9883 7.22874H59.4656C59.4771 6.69201 59.3229 6.28661 59.0031 6.01253Z" fill="#9E9E9E"/>
<path d="M63.1461 0.23982H65.6128V7.07457L68.1137 3.76854H71.0258V3.92271L67.9253 7.74263L71.5054 12.0251V12.2135H68.542L65.6128 8.49634V12.2135H63.1461V0.23982Z" fill="#9E9E9E"/>
<path d="M75.6226 3.56298C77.0386 3.56298 78.1064 3.83135 78.8258 4.36808C79.5567 4.89339 79.9221 5.73846 79.9221 6.90328V12.2135H77.5582V10.6718H77.5068C77.2784 11.1857 76.9073 11.5968 76.3934 11.9052C75.8795 12.2135 75.2914 12.3677 74.629 12.3677C73.7611 12.3677 73.0417 12.1221 72.4707 11.6311C71.8997 11.1286 71.6142 10.4605 71.6142 9.6269C71.6142 8.74757 71.9283 8.06239 72.5563 7.57133C73.1959 7.08028 74.0181 6.83476 75.023 6.83476C75.9024 6.83476 76.6389 6.98321 77.2328 7.28013V7.10883C77.2328 6.10389 76.5818 5.60142 75.28 5.60142C74.5034 5.60142 73.6469 5.7613 72.7105 6.08105L72.2138 4.21391C73.3101 3.77996 74.4463 3.56298 75.6226 3.56298ZM75.4855 10.295C75.9537 10.295 76.3534 10.1693 76.6846 9.9181C77.0158 9.66687 77.2156 9.31856 77.2841 8.87319C76.7588 8.59912 76.1936 8.46208 75.5883 8.46208C75.1886 8.46208 74.8689 8.54202 74.629 8.7019C74.4006 8.86177 74.2864 9.09588 74.2864 9.40421C74.2864 9.68971 74.4006 9.91239 74.629 10.0723C74.8574 10.2207 75.1429 10.295 75.4855 10.295Z" fill="#9E9E9E"/>
<path d="M81.5801 3.76854H84.0639V4.69354C84.6006 3.93984 85.3543 3.56298 86.325 3.56298C87.1244 3.56298 87.8153 3.81993 88.3977 4.33382L87.3699 6.28661C86.9702 6.00111 86.5192 5.85836 86.0167 5.85836C85.4571 5.85836 84.9889 6.03537 84.612 6.38939C84.2352 6.73198 84.0468 7.2059 84.0468 7.81115V12.2135H81.5801V3.76854Z" fill="#9E9E9E"/>
<path d="M91.4571 3.73428H88.9904V12.2135H91.4571V3.73428ZM89.2474 2.5352C88.9619 2.28397 88.8191 1.94137 88.8191 1.50742C88.8191 1.07347 88.9619 0.730872 89.2474 0.479636C89.5443 0.228401 89.8698 0.102783 90.2238 0.102783C90.5778 0.102783 90.8975 0.228401 91.183 0.479636C91.4799 0.730872 91.6284 1.07347 91.6284 1.50742C91.6284 1.94137 91.4799 2.28397 91.183 2.5352C90.8975 2.78644 90.5778 2.91205 90.2238 2.91205C89.8698 2.91205 89.5443 2.78644 89.2474 2.5352Z" fill="#9E9E9E"/>
<path d="M38.9744 15.7443H42.6744V25.9965L46.4258 21.0374H50.7939V21.2687L46.1431 26.9986L51.5133 33.4222V33.7048H47.0681L42.6744 28.1291V33.7048H38.9744V15.7443Z" fill="black"/>
<path d="M52.5501 15.7443H56.2244V33.7048H52.5501V15.7443Z" fill="black"/>
<path d="M62.5467 20.986H58.8467V33.7048H62.5467V20.986ZM59.2321 19.1874C58.8039 18.8106 58.5897 18.2967 58.5897 17.6457C58.5897 16.9948 58.8039 16.4809 59.2321 16.1041C59.6775 15.7272 60.1657 15.5388 60.6967 15.5388C61.2277 15.5388 61.7073 15.7272 62.1356 16.1041C62.581 16.4809 62.8037 16.9948 62.8037 17.6457C62.8037 18.2967 62.581 18.8106 62.1356 19.1874C61.7073 19.5643 61.2277 19.7527 60.6967 19.7527C60.1657 19.7527 59.6775 19.5643 59.2321 19.1874Z" fill="black"/>
<path d="M65.1194 15.7443H68.8194V25.9965L72.5708 21.0374H76.9389V21.2687L72.2881 26.9986L77.6583 33.4222V33.7048H73.2132L68.8194 28.1291V33.7048H65.1194V15.7443Z" fill="black"/>
<path d="M85.8382 30.6472C86.7803 30.6472 87.534 30.3474 88.0993 29.7479C88.6646 29.1312 88.9473 28.3432 88.9473 27.384C88.9473 26.4418 88.6646 25.6624 88.0993 25.0458C87.5512 24.4291 86.7975 24.1208 85.8382 24.1208C84.8961 24.1208 84.091 24.3863 83.4229 24.9173C82.7549 25.4483 82.4208 26.2705 82.4208 27.384C82.4208 28.3946 82.7634 29.1912 83.4486 29.7736C84.1338 30.356 84.9303 30.6472 85.8382 30.6472ZM82.3694 39.3063H78.6437V21.0374H82.1896V22.6562C83.1488 21.4228 84.5535 20.8062 86.4035 20.8062C88.2706 20.8062 89.778 21.4143 90.9257 22.6305C92.0906 23.8296 92.673 25.4141 92.673 27.384C92.673 29.4053 92.0906 31.0155 90.9257 32.2146C89.7609 33.3965 88.2364 33.9875 86.3521 33.9875C84.6734 33.9875 83.3458 33.3879 82.3694 32.1889V39.3063Z" fill="black"/>
<path d="M99.7171 20.7291C101.841 20.7291 103.443 21.1316 104.522 21.9367C105.618 22.7247 106.166 23.9923 106.166 25.7395V33.7048H102.621V31.3923H102.543C102.201 32.1632 101.644 32.7798 100.873 33.2423C100.103 33.7048 99.2203 33.9361 98.2268 33.9361C96.9249 33.9361 95.8458 33.5678 94.9893 32.8312C94.1328 32.0775 93.7046 31.0754 93.7046 29.825C93.7046 28.506 94.1756 27.4782 95.1178 26.7416C96.077 26.005 97.3104 25.6367 98.8178 25.6367C100.137 25.6367 101.242 25.8594 102.132 26.3048V26.0479C102.132 24.5404 101.156 23.7867 99.2032 23.7867C98.0384 23.7867 96.7536 24.0266 95.349 24.5062L94.6039 21.7055C96.2483 21.0546 97.9527 20.7291 99.7171 20.7291ZM99.5115 30.827C100.214 30.827 100.813 30.6386 101.31 30.2618C101.807 29.8849 102.107 29.3625 102.209 28.6944C101.421 28.2833 100.574 28.0777 99.6657 28.0777C99.0662 28.0777 98.5865 28.1976 98.2268 28.4375C97.8842 28.6773 97.7129 29.0284 97.7129 29.4909C97.7129 29.9192 97.8842 30.2532 98.2268 30.493C98.5694 30.7157 98.9976 30.827 99.5115 30.827Z" fill="black"/>
<path d="M112.328 20.986H108.653V34.4243C108.653 36.1715 107.805 36.6169 106.11 35.7604L105.056 38.4583C105.878 38.938 106.718 39.2206 107.574 39.3063C108.431 39.3919 109.219 39.2891 109.938 38.9979C110.658 38.7067 111.24 38.1586 111.685 37.3535C112.131 36.5484 112.345 35.5377 112.328 34.3215V20.986ZM109.064 19.1874C108.636 18.8106 108.422 18.2967 108.422 17.6457C108.422 16.9948 108.636 16.4809 109.064 16.1041C109.51 15.7272 109.989 15.5388 110.503 15.5388C111.034 15.5388 111.514 15.7272 111.942 16.1041C112.388 16.4809 112.61 16.9948 112.61 17.6457C112.61 18.2967 112.388 18.8106 111.942 19.1874C111.514 19.5643 111.034 19.7527 110.503 19.7527C109.989 19.7527 109.51 19.5643 109.064 19.1874Z" fill="black"/>
<path d="M120.091 20.7291C122.215 20.7291 123.817 21.1316 124.896 21.9367C125.992 22.7247 126.541 23.9923 126.541 25.7395V33.7048H122.995V31.3923H122.918C122.575 32.1632 122.018 32.7798 121.248 33.2423C120.477 33.7048 119.594 33.9361 118.601 33.9361C117.299 33.9361 116.22 33.5678 115.363 32.8312C114.507 32.0775 114.079 31.0754 114.079 29.825C114.079 28.506 114.55 27.4782 115.492 26.7416C116.451 26.005 117.685 25.6367 119.192 25.6367C120.511 25.6367 121.616 25.8594 122.507 26.3048V26.0479C122.507 24.5404 121.53 23.7867 119.577 23.7867C118.413 23.7867 117.128 24.0266 115.723 24.5062L114.978 21.7055C116.622 21.0546 118.327 20.7291 120.091 20.7291ZM119.886 30.827C120.588 30.827 121.188 30.6386 121.684 30.2618C122.181 29.8849 122.481 29.3625 122.584 28.6944C121.796 28.2833 120.948 28.0777 120.04 28.0777C119.44 28.0777 118.961 28.1976 118.601 28.4375C118.258 28.6773 118.087 29.0284 118.087 29.4909C118.087 29.9192 118.258 30.2532 118.601 30.493C118.944 30.7157 119.372 30.827 119.886 30.827Z" fill="black"/>
<path d="M129.028 15.7443H132.728V25.9965L136.479 21.0374H140.847V21.2687L136.196 26.9986L141.566 33.4222V33.7048H137.121L132.728 28.1291V33.7048H129.028V15.7443Z" fill="black"/>
</g>
<defs>
<clipPath id="clip0_184_690">
<rect width="142" height="40" fill="white"/>
</clipPath>
</defs>
</svg>
