<svg width="140" height="120" viewBox="0 0 140 120" fill="none" xmlns="http://www.w3.org/2000/svg">
<path d="M94.2004 79.3879C93.4528 79.4719 92.7052 79.5189 91.9544 79.5827C91.1872 79.6465 90.4462 79.5625 89.6823 79.5692C88.2132 79.5827 86.7344 79.811 85.2719 79.9252C82.3045 80.1602 79.3338 80.3449 76.3598 80.4523C70.4576 80.6672 64.5521 80.5732 58.6531 80.3046C55.2939 80.1501 51.9445 79.9554 48.5821 79.8714C48.0663 79.858 47.952 80.5934 48.4744 80.6975C54.344 81.8659 60.3376 82.1984 66.3051 82.3226C72.302 82.4468 78.3087 82.2857 84.2958 81.8492C85.9771 81.7249 87.6713 81.6108 89.3395 81.3824C90.1687 81.2683 90.9554 80.9661 91.7846 80.8351C92.6334 80.7008 93.4789 80.5598 94.3309 80.4355C94.9904 80.3482 94.8631 79.3141 94.2004 79.3879Z" fill="#C6C6C6"/>
<path d="M83.6135 68.3105C83.2446 68.3945 82.879 68.4415 82.5101 68.5053C82.1347 68.5691 81.769 68.4851 81.3936 68.4919C80.6722 68.5053 79.9442 68.7336 79.2227 68.8478C77.7635 69.0828 76.3043 69.2675 74.8418 69.375C71.9396 69.5899 69.0342 69.4958 66.132 69.2272C64.4802 69.0728 62.8316 68.878 61.1798 68.7941C60.9284 68.7806 60.8697 69.516 61.1276 69.6201C64.0134 70.7886 66.9612 71.121 69.8993 71.2452C72.8504 71.3695 75.8048 71.2083 78.7461 70.7718C79.572 70.6476 80.4045 70.5334 81.2271 70.3051C81.6352 70.1909 82.0237 69.8887 82.4285 69.7577C82.8463 69.6234 83.2609 69.4824 83.6788 69.3582C84.002 69.2709 83.94 68.2367 83.6135 68.3105Z" fill="#C6C6C6"/>
<path d="M53.4529 35.7905C54.0274 39.7493 56.4562 43.1641 59.9493 44.9236C65.9821 48.1269 71.9463 54.0602 73.2064 59.99C73.2064 59.99 75.1945 55.2186 78.4427 52.6264C81.6909 50.0342 90.9196 44.5241 92.8261 41.2401C94.762 37.9092 94.4159 35.3808 94.4159 35.3808C94.4159 35.3808 93.4203 32.9934 89.7771 33.1983C86.1959 33.4031 69.6253 33.3359 63.4619 33.6751C60.0341 33.7993 56.6488 34.5145 53.4529 35.7905Z" fill="#43A5ED"/>
<path d="M95.8754 100.629C95.8754 102.13 82.7521 103.56 73.3372 103.56C63.9224 103.56 50.6685 102.536 50.6685 101.039L73.334 83.3097L95.8754 100.629Z" fill="#43A5ED"/>
<path d="M72.5371 69.3279C72.1421 69.3985 71.8679 69.7645 71.9038 70.1775C71.9364 70.5636 72.2302 70.8423 72.6057 70.8423C72.8048 70.8423 72.9909 70.7617 73.128 70.6173C73.2684 70.473 73.3434 70.2816 73.3434 70.0767C73.3434 69.6604 73.0105 69.3179 72.6057 69.3179L72.5371 69.3279Z" fill="#43A5ED"/>
<path d="M72.5503 66.9574C72.5633 66.9574 72.5764 66.9574 72.5862 66.9574C72.5993 66.9574 72.6091 66.9574 72.6221 66.9574C72.9159 66.9473 73.1901 66.8197 73.3925 66.5981C73.5949 66.3765 73.6994 66.0877 73.6896 65.7855C73.67 65.1878 73.2032 64.7076 72.6221 64.6875C72.3283 64.6741 72.0476 64.7849 71.8321 64.993C71.6167 65.2012 71.4926 65.4799 71.4828 65.7855C71.473 66.0911 71.5775 66.3765 71.7799 66.5981C71.9823 66.8197 72.2565 66.9473 72.5503 66.9574Z" fill="#43A5ED"/>
<path d="M72.622 73.1423H72.6057H72.5894C72.3315 73.1524 72.0899 73.2666 71.9136 73.4613C71.7374 73.6561 71.6459 73.9113 71.6557 74.1765C71.6753 74.697 72.0867 75.1201 72.5926 75.1369H72.609H72.622C73.1574 75.1167 73.5752 74.6533 73.5589 74.1027C73.5393 73.5856 73.128 73.1591 72.622 73.1423Z" fill="#43A5ED"/>
<path d="M72.6515 76.2818L72.6058 76.2784L72.5601 76.2818C72.0639 76.3389 71.7016 76.7989 71.7571 77.3126C71.8028 77.7525 72.1358 78.0917 72.5601 78.1387L72.6058 78.142L72.6515 78.1387C72.8931 78.1118 73.1086 77.9909 73.262 77.7962C73.4154 77.6014 73.484 77.3563 73.4579 77.1112C73.4089 76.6713 73.0792 76.3288 72.6515 76.2818Z" fill="#43A5ED"/>
<path d="M103.808 22.5541C102.989 31.0392 101.526 36.2202 99.698 39.7023C99.747 40.1556 99.7959 40.6089 99.8449 41.0655C102.039 37.3888 103.537 32.2346 104.347 24.1322C104.226 23.689 104.085 23.2525 103.922 22.8261C103.89 22.732 103.847 22.6414 103.808 22.5541Z" fill="#191919"/>
<path d="M94.9155 72.7294C93.4432 71.5407 91.7228 70.389 90.0579 69.2776L89.5944 68.9653C83.6954 65.0098 80.5027 62.3908 80.5158 59.8959C80.5288 57.3407 83.8521 54.6578 89.5944 50.8904C89.973 50.6419 90.3452 50.3833 90.7141 50.1282C90.9034 49.9972 91.0928 49.8662 91.2821 49.7353L91.3311 49.7017L91.3768 49.6245C91.3866 49.6111 91.3931 49.5976 91.3996 49.5842C92.4802 48.8488 93.7207 47.9859 94.7817 47.1263C101.04 42.0796 104.559 35.4681 105.225 15.0293C105.287 14.6599 105.156 14.2838 104.872 14.0421C102.695 11.7554 87.0056 10.5601 72.6058 10.5601V10.8388H72.0705V10.5601C57.6707 10.5601 41.9815 11.7554 39.8041 14.0421C39.5233 14.2838 39.3895 14.6566 39.4515 15.0293C40.1207 35.4681 43.6366 42.0796 49.8947 47.1263C50.9556 47.9825 52.1961 48.8455 53.2767 49.5842C53.2832 49.5976 53.2897 49.6077 53.2963 49.6178L53.3485 49.7017L53.3942 49.7319C53.5836 49.8595 53.7696 49.9905 53.959 50.1214C54.3311 50.38 54.7033 50.6385 55.0852 50.887C60.8242 54.6544 64.1508 57.3373 64.1638 59.8926C64.1769 62.3908 60.9809 65.0065 55.0852 68.9619L54.6217 69.2742C52.9568 70.389 51.2364 71.5407 49.7641 72.726C43.2873 77.9541 39.7127 84.6226 39.3862 104.853C39.3699 105.834 40.2742 106.465 42.5071 107.039C44.2797 107.492 46.6693 107.892 49.6106 108.224C55.5618 108.896 63.524 109.272 72.0313 109.282H72.3382H72.645C81.1523 109.272 89.1177 108.899 95.0689 108.224C98.0103 107.892 100.4 107.492 102.173 107.039C104.405 106.468 105.31 105.834 105.293 104.853C104.967 84.6226 101.396 77.9541 94.9155 72.7294ZM65.8581 59.859C65.8581 56.0983 60.7818 52.6633 55.8752 49.3424C54.0634 48.1168 52.3496 46.9551 50.9034 45.7966C46.0589 41.9083 41.9815 37.0194 41.149 16.5906C41.7007 16.8257 42.2753 17.0003 42.8531 17.1111C50.8642 19.0116 64.7678 19.2836 72.3382 19.2701C79.9086 19.2869 93.8154 19.0116 101.813 17.1144C102.401 17.0036 102.979 16.829 103.531 16.594C102.698 37.0194 98.6207 41.9117 93.7762 45.8C92.33 46.9584 90.6194 48.1202 88.8043 49.3458C83.8978 52.6666 78.8215 56.1016 78.8215 59.8624C78.8215 63.5492 83.5028 66.7425 88.4616 70.1271C90.2505 71.346 92.0982 72.6085 93.7762 73.9247C98.7187 77.803 102.871 82.796 103.609 104.692C103.371 104.894 101.928 105.78 94.3736 106.63C93.0939 106.774 91.6738 106.905 90.1493 107.026C84.7368 107.429 78.5799 107.647 72.3382 107.647C66.0964 107.644 59.9363 107.429 54.527 107.026C53.0025 106.905 51.5791 106.774 50.2995 106.63C42.667 105.773 41.2764 104.877 41.0642 104.699C41.8019 82.7994 45.9544 77.803 50.8969 73.9247C52.5748 72.6085 54.4258 71.346 56.2115 70.1271C61.1768 66.7391 65.8581 63.5425 65.8581 59.859ZM93.9884 16.7619C87.1949 17.4133 80.2448 17.7591 73.3404 17.7961L73.0074 17.7994C72.7854 17.7994 72.5667 17.7994 72.3414 17.8028C72.1194 17.8028 71.8974 17.8028 71.6755 17.7994L71.3425 17.7961C64.4348 17.7591 57.4879 17.4133 50.6977 16.7652C43.8912 16.0232 41.864 15.2442 41.2927 14.9218C41.8542 14.5827 43.8161 13.7835 50.3615 13.0918C55.9862 12.4975 63.586 12.1449 72.3414 12.0711C81.0968 12.1449 88.6966 12.4975 94.3214 13.0918C100.867 13.7835 102.832 14.5827 103.39 14.9218C102.812 15.2442 100.785 16.0198 93.9884 16.7619ZM72.3414 11.977V11.7924H72.3447L72.3414 11.977Z" fill="#163C69"/>
<path d="M72.5146 81.6845L72.4786 81.661L45.9251 99.6184L45.8958 99.6386V99.9475C45.8958 100.72 46.6792 101.15 48.997 101.653C54.8079 102.909 66.4426 103.497 72.4754 103.497C78.5082 103.497 90.1429 102.912 95.9537 101.653C98.1573 101.176 99.055 100.683 99.055 99.9475V99.6386L72.5146 81.6845ZM97.6513 100.001C93.6621 101.63 77.2252 102.332 72.4786 102.332H72.4754C67.67 102.332 51.1679 101.63 47.4268 100.005L72.5407 83.0545L97.6513 100.001Z" fill="#163C69"/>
<path d="M53.254 43.5637L53.2507 43.5805L53.6065 43.8424C53.9493 44.111 54.3084 44.3797 54.674 44.6483C55.686 45.387 56.8188 46.1291 57.8928 46.8241C58.5686 47.2741 59.2117 47.6938 59.8222 48.0934C61.4381 49.1511 62.8353 50.0644 64.1281 51.0482L64.1901 51.0952C64.2848 51.1691 64.3794 51.2396 64.4741 51.3135C64.6112 51.4209 64.745 51.5284 64.8789 51.6358C65.5775 52.2033 66.2108 52.7674 66.8148 53.3718C69.6614 56.2125 71.372 59.2714 71.9009 62.4714L71.9106 62.5285H73.0663L73.0761 62.4714C73.6049 59.2748 75.3155 56.2125 78.1622 53.3718C78.7661 52.7708 79.3962 52.2033 80.098 51.6392C80.2319 51.5317 80.3657 51.4243 80.5028 51.3168C80.5975 51.243 80.6922 51.1691 80.7868 51.0986L80.8489 51.0516C82.1416 50.0711 83.5388 49.1544 85.1548 48.0967C85.7652 47.6971 86.4083 47.2774 87.0841 46.8275C88.1581 46.1358 89.2909 45.3904 90.3029 44.6516C90.6685 44.383 91.0276 44.1144 91.3704 43.8491L91.6936 43.6107L91.7262 43.5704V43.5671C94.2627 41.5423 97.6415 38.3357 97.8896 33.8228C97.8896 33.0975 97.2041 32.6241 95.5196 32.1876C91.403 31.1198 82.9806 30.4885 72.9357 30.4885C72.6419 30.4885 72.3416 30.4885 72.0478 30.4885C62.0029 30.4885 53.5804 31.1198 49.4639 32.1876C47.7794 32.6241 47.0906 33.0975 47.0906 33.8262C47.3387 38.3323 50.7174 41.539 53.254 43.5637ZM54.7752 32.6174C56.1072 32.4629 57.5925 32.3252 59.1888 32.2111C63.1618 31.9324 67.7614 31.7846 72.4885 31.7813C77.2187 31.7846 81.8152 31.9324 85.7881 32.2111C87.3877 32.3252 88.873 32.4629 90.2017 32.6174L90.2931 32.6207C93.4303 32.9834 95.5653 33.4434 96.4891 33.9504C95.389 34.5514 92.4771 35.0954 88.243 35.4883C83.7314 35.8912 78.4462 36.1094 72.9586 36.1229H72.4885H72.0184C66.5275 36.1094 61.2422 35.8912 56.7339 35.4883C52.4999 35.0954 49.5879 34.5514 48.4878 33.9504C49.4116 33.4434 51.5466 32.9834 54.6838 32.6207V32.6308L54.7752 32.6174ZM49.5912 35.589C50.6717 35.8945 52.3138 36.1732 54.4749 36.4217C59.0811 37.0127 65.4828 37.325 72.4917 37.3048C79.5039 37.3283 85.9023 37.0127 90.5053 36.4217C92.6664 36.1732 94.3085 35.8945 95.389 35.589C95.7546 35.4883 96.117 35.364 96.4728 35.223C95.4739 40.0716 90.5412 43.2951 85.3245 46.7066C82.4713 48.5735 79.5202 50.5009 77.2938 52.7137C75.1719 54.7317 73.5135 57.2668 72.4885 60.0538C71.4634 57.2668 69.805 54.7317 67.6831 52.7137C65.4567 50.5009 62.5056 48.5702 59.6524 46.7032C54.4357 43.2917 49.503 40.0683 48.5041 35.2196C48.8599 35.364 49.2256 35.4883 49.5912 35.589Z" fill="#163C69"/>
<path d="M93.5967 17.1682C93.7599 17.5006 93.9362 17.8263 94.119 18.1486C95.5815 17.9807 97.5663 17.7356 99.0223 17.5073C98.6502 17.2387 98.2911 16.9566 97.9483 16.6477C97.0473 16.7652 94.7589 17.0305 93.5967 17.1682Z" fill="#191919"/>
<path d="M47.9098 56.0311C47.8477 55.5443 47.5768 55.1413 47.3156 54.7451C46.2089 53.0561 45.0892 51.3772 43.976 49.695C43.3492 48.7515 42.7322 47.7979 42.0957 46.861C41.7855 46.4044 41.4721 45.9477 41.1588 45.4944C40.8356 45.021 40.5352 44.5106 40.0096 44.2655C39.9705 44.2487 39.9313 44.2386 39.8954 44.2352C39.7909 43.8927 39.2229 43.9062 39.187 44.3058C39.0956 45.3836 39.0499 46.4648 39.0238 47.546C39.0009 48.4157 38.9454 49.3156 38.9944 50.1919C34.0552 51.065 28.7601 52.7304 25.4401 56.837C24.5979 57.8779 23.8242 59.127 23.5761 60.4701C23.5271 60.7354 23.674 61.0006 23.8895 61.1417C23.8373 61.3431 23.7883 61.5413 23.7654 61.7528C23.7295 62.0819 23.7197 62.4143 23.7002 62.7467C23.6544 63.4686 23.6447 64.2006 23.6479 64.9259C23.6512 65.6478 23.674 66.3664 23.7132 67.0883C23.7426 67.6088 23.7165 68.1527 23.7426 68.6833C23.7263 68.7437 23.7197 68.8109 23.7263 68.8847C23.8209 70.0532 24.1049 71.2083 24.5587 72.2828C24.7872 72.82 25.0549 73.3439 25.3814 73.8274C25.6719 74.2605 26.0277 74.6366 26.4064 74.9892C26.7982 75.4122 27.2976 75.6909 27.8298 75.8924C27.9701 76.02 28.1138 76.1476 28.2639 76.2685C29.449 77.2187 30.856 77.662 32.2825 78.075C33.8234 78.5216 35.3708 78.9346 36.9312 79.3073C38.4753 79.6766 40.0619 80.0964 41.6582 79.9117C42.285 79.8412 42.3111 79.0084 41.8149 78.7365C40.483 78.0112 38.9519 77.7493 37.496 77.4001C36.0726 77.0576 34.6558 76.6916 33.2423 76.2987C31.9496 75.9394 30.6797 75.5096 29.4522 74.9556C28.499 74.5258 27.6208 73.8509 27.0985 72.9073C27.0985 72.7898 27.105 72.6723 27.1311 72.5481C27.2585 71.9101 27.6665 71.3594 28.0615 70.8725C29.7819 68.7504 32.1618 67.1353 34.6526 66.1381C35.9616 65.6142 37.3393 65.2247 38.73 65.0098C38.7038 65.0602 38.6875 65.1206 38.6843 65.1878C38.6288 66.0474 38.5928 66.9036 38.5765 67.7632C38.5667 68.193 38.5537 68.6262 38.5504 69.056C38.5471 69.4992 38.5537 69.9794 38.6614 70.4091C38.7495 70.7718 39.0531 70.9162 39.3143 70.849C39.3926 71.0203 39.5298 71.168 39.6897 71.2385C40.0749 71.4064 40.4471 71.2016 40.6332 70.8457C42.5135 67.2361 44.3776 63.6164 46.2383 59.9933C46.7019 59.0867 47.1981 58.1969 47.6453 57.2836C47.8281 56.8907 47.9653 56.471 47.9098 56.0311ZM46.4277 56.7531C46.0196 57.5925 45.5626 58.4152 45.1251 59.2378C44.2143 60.9503 43.3068 62.6661 42.396 64.3786C41.5309 66.0105 40.6756 67.6457 39.8203 69.2809C39.8203 69.2071 39.8203 69.1298 39.8203 69.056C39.817 68.6262 39.804 68.193 39.7942 67.7632C39.7746 66.9003 39.7387 66.0474 39.6865 65.1844C39.6734 64.9897 39.5624 64.8621 39.4155 64.7949C39.7615 64.4592 39.6865 63.6936 39.1054 63.6869C37.4633 63.6701 35.8898 63.885 34.3196 64.392C32.7755 64.889 31.3163 65.6377 29.9843 66.5779C28.4729 67.6457 26.3248 69.4992 25.685 71.5273C25.3357 70.7886 25.0647 70.0129 24.9015 69.2037C24.9113 69.1701 24.9243 69.1332 24.9276 69.0929C25.0125 68.0453 25.0092 66.9842 24.9929 65.9299C25.0027 65.5941 25.0092 65.2617 25.0125 64.9259C25.0157 64.2006 25.0027 63.4686 24.9603 62.7467C24.9407 62.4176 24.9309 62.0819 24.895 61.7528C24.8688 61.4976 24.8003 61.2558 24.7383 61.0107C24.784 60.957 24.8297 60.8966 24.8656 60.8294C25.3716 59.8792 25.8123 58.939 26.4652 58.0827C27.1279 57.2097 27.9048 56.4509 28.7634 55.7827C30.6536 54.3119 32.88 53.3483 35.1194 52.5827C36.5068 52.1092 37.9138 51.7164 39.3012 51.2396C39.3208 51.2329 39.3372 51.2228 39.3567 51.2127C39.6342 51.3269 40.0064 51.2026 40.0586 50.8199C40.199 49.7487 40.1174 48.6239 40.088 47.5427C40.0717 46.992 40.0553 46.4447 40.026 45.8973C40.2937 46.3339 40.5711 46.7637 40.8421 47.1968C41.3448 47.9926 41.8606 48.7783 42.3731 49.5674C43.4276 51.1926 44.4788 52.8177 45.5397 54.4395C45.7976 54.8324 46.0555 55.2253 46.3134 55.6181C46.4179 55.7759 46.5746 55.964 46.6105 56.1621C46.6399 56.3703 46.5125 56.5785 46.4277 56.7531Z" fill="#163C69"/>
<path d="M115.351 63.7741C115.351 63.4115 115.348 63.0455 115.345 62.6829C115.619 61.5009 115.515 60.3257 115.152 59.2176C115.106 58.8953 115.048 58.5796 114.956 58.2674C114.911 58.1096 114.78 58.0122 114.633 57.9752C114.271 57.2668 113.814 56.5986 113.304 55.9942C112.479 55.0137 111.538 54.1373 110.474 53.4355C109.403 52.727 108.133 51.948 106.808 52.079C106.158 52.1428 105.444 52.5054 105.107 53.0997C104.902 53.4624 104.804 53.8888 104.827 54.3085C104.813 54.3455 104.807 54.3858 104.804 54.4328C104.735 55.9874 104.712 57.5421 104.689 59.1001C104.676 59.8825 104.667 60.6615 104.67 61.4438C104.673 62.196 104.575 63.0421 104.742 63.7775C104.765 63.8749 104.804 63.9521 104.849 64.0193C104.823 64.2543 104.869 64.4726 104.996 64.6841C105.346 65.2683 105.953 65.5605 106.553 65.8056C107.699 66.2757 108.868 66.6383 109.821 67.4744C110.66 68.2098 111.329 69.1231 111.855 70.117C112.133 70.6408 112.368 71.1948 112.57 71.7556C112.661 72.0074 112.74 72.276 112.759 72.548C112.479 73.0416 112.07 73.4244 111.548 73.7065C110.69 74.1665 109.782 74.5526 108.891 74.932C107.99 75.3148 107.082 75.6708 106.149 75.9562C105.218 76.2416 104.229 76.339 103.318 76.668C102.819 76.846 102.75 77.7593 103.309 77.9171C104.376 78.2227 105.548 78.0279 106.609 77.7593C107.706 77.484 108.767 77.0844 109.798 76.621C110.788 76.1778 111.95 75.7547 112.763 75.0026C113.36 74.4552 113.824 73.787 114.121 73.0315C114.614 72.6252 114.744 71.7489 114.888 71.168C115.067 70.4326 115.191 69.6939 115.283 68.9384C115.43 67.7632 115.492 66.5712 115.338 65.3993C115.351 64.8553 115.351 64.3181 115.351 63.7741ZM111.702 66.8431C110.729 65.8056 109.55 65.181 108.202 64.8251C107.53 64.6472 106.864 64.4692 106.224 64.1838C106.021 64.0931 105.871 64.0696 105.793 63.9588C105.822 63.9051 105.848 63.8447 105.865 63.7741C106.031 63.0388 105.933 62.196 105.936 61.4438C105.94 60.6615 105.93 59.8825 105.917 59.1001C105.897 57.7704 105.871 56.4407 105.822 55.1111C105.923 55.0103 105.982 54.8626 105.95 54.6813C105.871 54.2548 106.348 53.9123 106.72 53.815C107.213 53.6874 107.758 53.9224 108.192 54.1373C109.286 54.6779 110.285 55.4737 111.16 56.3366C112.387 57.5454 113.474 59.1605 113.703 60.9133C113.703 60.9234 113.703 60.9335 113.699 60.9435C113.66 61.5379 113.644 62.1355 113.637 62.7299V62.7332C113.634 63.1026 113.631 63.4686 113.634 63.8346C113.637 64.7513 113.628 65.6679 113.683 66.5846C113.735 67.4039 113.739 68.2433 113.827 69.0626C113.768 69.3514 113.703 69.6368 113.631 69.9222C113.171 68.7839 112.541 67.733 111.702 66.8431Z" fill="#163C69"/>
<path d="M53.9196 67.6389C53.5736 67.236 53.2014 67.2326 52.7118 67.2159C52.3461 67.2024 51.9772 67.2091 51.6083 67.1991C50.7955 67.1789 49.9794 67.1319 49.1698 67.0547C47.5702 66.9036 45.9901 66.682 44.4166 66.3428C44.0184 66.2555 43.6201 66.6182 43.5711 67.0077C43.5124 67.4576 43.8225 67.78 44.2175 67.8773C45.7975 68.2736 47.4102 68.5858 49.0294 68.7403C49.8129 68.8142 50.5996 68.8645 51.3896 68.888C51.8271 68.9015 52.2678 68.9149 52.7085 68.8947C53.1721 68.8746 53.5964 68.8679 53.9066 68.4616C54.0763 68.2467 54.1122 67.8605 53.9196 67.6389Z" fill="#163C69"/>
<path d="M103.184 64.3181C101.33 64.9191 99.4334 65.3388 97.5237 65.7048C96.5868 65.8828 95.6433 66.007 94.6999 66.1346C94.22 66.1984 93.7401 66.2421 93.2635 66.3059C92.7542 66.373 92.1829 66.3865 91.7814 66.7491C91.3897 67.1017 91.4125 67.7632 91.925 67.9881C92.418 68.2064 92.9631 68.0922 93.4822 68.0721C93.9654 68.0553 94.4452 68.015 94.9284 67.968C95.9273 67.8706 96.9197 67.6859 97.9024 67.4811C99.8905 67.0647 101.813 66.3764 103.674 65.5571C104.451 65.2146 103.978 64.0629 103.184 64.3181Z" fill="#163C69"/>
</svg>
