<svg width="200" height="168" viewBox="0 0 200 168" fill="none" xmlns="http://www.w3.org/2000/svg">
<path d="M134.572 110.814C133.504 110.931 132.436 110.996 131.363 111.085C130.268 111.174 129.209 111.057 128.118 111.066C126.019 111.085 123.906 111.403 121.817 111.562C117.578 111.889 113.334 112.146 109.086 112.295C100.654 112.594 92.2173 112.463 83.7902 112.09C78.9914 111.875 74.2066 111.604 69.4031 111.487C68.6662 111.468 68.503 112.491 69.2492 112.636C77.6343 114.262 86.1966 114.725 94.7217 114.898C103.289 115.071 111.87 114.847 120.423 114.239C122.824 114.066 125.245 113.907 127.628 113.59C128.812 113.431 129.936 113.01 131.121 112.828C132.333 112.641 133.541 112.445 134.759 112.272C135.701 112.15 135.519 110.711 134.572 110.814Z" fill="#C6C6C6"/>
<path d="M119.447 95.3998C118.92 95.5166 118.398 95.582 117.871 95.6708C117.335 95.7596 116.812 95.6428 116.276 95.6521C115.246 95.6708 114.206 95.9886 113.175 96.1475C111.09 96.4746 109.006 96.7316 106.916 96.8811C102.77 97.1802 98.6199 97.0493 94.4739 96.6755C92.1142 96.4605 89.7591 96.1895 87.3993 96.0727C87.0402 96.054 86.9562 97.0774 87.3247 97.2222C91.4473 98.8484 95.6585 99.311 99.8557 99.4839C104.072 99.6568 108.292 99.4325 112.494 98.825C113.674 98.6521 114.863 98.4933 116.038 98.1755C116.621 98.0166 117.176 97.5961 117.755 97.4138C118.351 97.2269 118.944 97.0306 119.541 96.8577C120.002 96.7362 119.914 95.297 119.447 95.3998Z" fill="#C6C6C6"/>
<path d="M76.3613 50.1444C77.1821 55.6537 80.6518 60.4061 85.6419 62.8547C94.2602 67.3126 102.781 75.5697 104.581 83.822C104.581 83.822 107.421 77.1818 112.061 73.5743C116.701 69.9669 129.885 62.2986 132.609 57.7285C135.374 53.093 134.88 49.5743 134.88 49.5743C134.88 49.5743 133.458 46.2518 128.253 46.5369C123.137 46.8219 99.4647 46.7285 90.6599 47.2004C85.7631 47.3733 80.927 48.3687 76.3613 50.1444Z" fill="#43A5ED"/>
<path d="M136.964 140.376C136.964 142.465 118.217 144.456 104.767 144.456C91.317 144.456 72.3828 143.031 72.3828 140.946L104.762 116.273L136.964 140.376Z" fill="#43A5ED"/>
<path d="M103.624 96.8148C103.06 96.9129 102.668 97.4223 102.719 97.997C102.766 98.5344 103.186 98.9223 103.722 98.9223C104.006 98.9223 104.272 98.8101 104.468 98.6092C104.669 98.4083 104.776 98.1419 104.776 97.8569C104.776 97.2774 104.3 96.8008 103.722 96.8008L103.624 96.8148Z" fill="#43A5ED"/>
<path d="M103.643 93.5159C103.662 93.5159 103.68 93.5159 103.694 93.5159C103.713 93.5159 103.727 93.5159 103.746 93.5159C104.165 93.5019 104.557 93.3243 104.846 93.0159C105.135 92.7075 105.285 92.3056 105.271 91.885C105.243 91.0532 104.576 90.385 103.746 90.357C103.326 90.3383 102.925 90.4925 102.617 90.7822C102.309 91.0719 102.132 91.4598 102.118 91.885C102.104 92.3103 102.253 92.7075 102.542 93.0159C102.832 93.3243 103.223 93.5019 103.643 93.5159Z" fill="#43A5ED"/>
<path d="M103.745 102.125H103.721H103.698C103.33 102.139 102.985 102.298 102.733 102.569C102.481 102.84 102.35 103.195 102.364 103.564C102.392 104.289 102.98 104.877 103.703 104.901H103.726H103.745C104.51 104.873 105.106 104.228 105.083 103.461C105.055 102.742 104.468 102.148 103.745 102.125Z" fill="#43A5ED"/>
<path d="M103.788 106.493L103.723 106.488L103.657 106.493C102.948 106.572 102.431 107.213 102.51 107.928C102.575 108.54 103.051 109.012 103.657 109.077L103.723 109.082L103.788 109.077C104.133 109.04 104.441 108.871 104.66 108.6C104.879 108.329 104.977 107.988 104.94 107.647C104.87 107.035 104.399 106.558 103.788 106.493Z" fill="#43A5ED"/>
<path d="M148.297 31.7227C147.127 43.5311 145.037 50.7414 142.426 55.5872C142.496 56.2181 142.566 56.8489 142.636 57.4844C145.77 52.3676 147.91 45.1947 149.067 33.9189C148.894 33.3021 148.694 32.6946 148.46 32.1012C148.414 31.9703 148.353 31.8442 148.297 31.7227Z" fill="#191919"/>
<path d="M135.594 101.55C133.49 99.896 131.033 98.2932 128.654 96.7465L127.992 96.3119C119.565 90.8072 115.004 87.1623 115.022 83.6904C115.041 80.1343 119.789 76.4006 127.992 71.1576C128.533 70.8118 129.065 70.452 129.591 70.0969C129.862 69.9146 130.132 69.7324 130.403 69.5501L130.473 69.5034L130.538 69.3959C130.552 69.3772 130.562 69.3585 130.571 69.3398C132.114 68.3165 133.887 67.1155 135.402 65.9193C144.342 58.8959 149.37 49.6949 150.321 21.2509C150.41 20.7369 150.223 20.2135 149.817 19.8771C146.707 16.6948 124.294 15.0312 103.723 15.0312V15.4191H102.958V15.0312C82.3867 15.0312 59.9735 16.6948 56.8629 19.8771C56.4618 20.2135 56.2706 20.7322 56.3592 21.2509C57.3152 49.6949 62.3379 58.8959 71.278 65.9193C72.7937 67.1109 74.5658 68.3118 76.1095 69.3398C76.1188 69.3585 76.1281 69.3726 76.1375 69.3866L76.2121 69.5034L76.2774 69.5455C76.5479 69.723 76.8137 69.9053 77.0842 70.0875C77.6158 70.4473 78.1475 70.8071 78.6931 71.1529C86.8917 76.3959 91.6439 80.1296 91.6625 83.6857C91.6812 87.1623 87.1156 90.8025 78.6931 96.3072L78.0309 96.7418C75.6525 98.2932 73.1948 99.896 71.0915 101.546C61.8389 108.821 56.7323 118.102 56.2659 146.256C56.2426 147.62 57.5344 148.499 60.7243 149.298C63.2567 149.929 66.6704 150.485 70.8723 150.948C79.374 151.882 90.7485 152.406 102.902 152.42H103.34H103.779C115.932 152.406 127.311 151.887 135.813 150.948C140.015 150.485 143.428 149.929 145.961 149.298C149.151 148.504 150.442 147.62 150.419 146.256C149.953 118.102 144.851 108.821 135.594 101.55ZM94.0829 83.639C94.0829 78.4053 86.8311 73.6249 79.8217 69.0034C77.2334 67.2978 74.785 65.681 72.7191 64.0688C65.7983 58.6576 59.9735 51.8538 58.7843 23.4238C59.5724 23.7509 60.3932 23.9939 61.2187 24.1481C72.6631 26.793 92.5253 27.1715 103.34 27.1528C114.155 27.1762 134.022 26.793 145.448 24.1528C146.287 23.9986 147.113 23.7556 147.901 23.4285C146.712 51.8538 140.887 58.6622 133.966 64.0735C131.9 65.6856 129.456 67.3024 126.863 69.0081C119.854 73.6296 112.602 78.41 112.602 83.6436C112.602 88.7745 119.29 93.2184 126.374 97.9287C128.929 99.625 131.569 101.382 133.966 103.214C141.027 108.611 146.959 115.56 148.013 146.032C147.672 146.312 145.611 147.546 134.819 148.728C132.991 148.929 130.963 149.111 128.785 149.279C121.052 149.84 112.257 150.144 103.34 150.144C94.4234 150.139 85.6232 149.84 77.8956 149.279C75.7178 149.111 73.6844 148.929 71.8563 148.728C60.9528 147.536 58.9662 146.289 58.663 146.041C59.717 115.564 65.6491 108.611 72.7097 103.214C75.1068 101.382 77.7511 99.625 80.3021 97.9287C87.3954 93.2137 94.0829 88.7651 94.0829 83.639ZM134.269 23.6621C124.564 24.5687 114.635 25.05 104.772 25.1014L104.296 25.106C103.979 25.106 103.667 25.106 103.345 25.1107C103.028 25.1107 102.711 25.1107 102.393 25.106L101.918 25.1014C92.0496 25.05 82.1255 24.5687 72.4253 23.6668C62.7017 22.6341 59.8056 21.55 58.9895 21.1014C59.7916 20.6294 62.5944 19.5172 71.9449 18.5546C79.9803 17.7275 90.8371 17.2369 103.345 17.1341C115.853 17.2369 126.709 17.7275 134.745 18.5546C144.095 19.5172 146.903 20.6294 147.7 21.1014C146.875 21.55 143.979 22.6294 134.269 23.6621ZM103.345 17.0032V16.7462H103.349L103.345 17.0032Z" fill="#163C69"/>
<path d="M103.591 114.013L103.54 113.98L65.6064 138.971L65.5645 138.999V139.429C65.5645 140.504 66.6837 141.102 69.9949 141.803C78.296 143.551 94.9171 144.368 103.535 144.368C112.154 144.368 128.775 143.555 137.076 141.803C140.224 141.139 141.506 140.453 141.506 139.429V138.999L103.591 114.013ZM139.501 139.504C133.802 141.77 110.321 142.747 103.54 142.747H103.535C96.6706 142.747 73.0961 141.77 67.7517 139.509L103.629 115.92L139.501 139.504Z" fill="#163C69"/>
<path d="M76.0763 60.9619L76.0717 60.9853L76.58 61.3498C77.0697 61.7236 77.5827 62.0975 78.105 62.4713C79.5507 63.4993 81.169 64.532 82.7033 65.4993C83.6686 66.1255 84.5874 66.7096 85.4595 67.2657C87.7679 68.7377 89.764 70.0087 91.6107 71.3779L91.6993 71.4433C91.8346 71.5461 91.9698 71.6442 92.1051 71.747C92.3009 71.8966 92.4921 72.0461 92.6834 72.1956C93.6814 72.9853 94.5861 73.7704 95.4489 74.6115C99.5155 78.5648 101.959 82.8218 102.715 87.2751L102.729 87.3545H104.38L104.394 87.2751C105.149 82.8265 107.593 78.5648 111.659 74.6115C112.522 73.7751 113.422 72.9853 114.425 72.2003C114.616 72.0508 114.807 71.9012 115.003 71.7517C115.139 71.6489 115.274 71.5461 115.409 71.448L115.498 71.3825C117.344 70.018 119.34 68.7423 121.649 67.2704C122.521 66.7143 123.44 66.1302 124.405 65.504C125.939 64.5414 127.558 63.504 129.003 62.476C129.526 62.1021 130.039 61.7283 130.528 61.3591L130.99 61.0274L131.037 60.9713V60.9666C134.66 58.1488 139.487 53.6862 139.842 47.4058C139.842 46.3965 138.862 45.7376 136.456 45.1301C130.575 43.6441 118.543 42.7656 104.193 42.7656C103.773 42.7656 103.344 42.7656 102.925 42.7656C88.5747 42.7656 76.5427 43.6441 70.6619 45.1301C68.2555 45.7376 67.2715 46.3965 67.2715 47.4105C67.6259 53.6815 72.4527 58.1442 76.0763 60.9619ZM78.2496 45.7282C80.1523 45.5133 82.2742 45.3217 84.5547 45.1628C90.2303 44.775 96.8013 44.5694 103.554 44.5647C110.312 44.5694 116.878 44.775 122.554 45.1628C124.839 45.3217 126.961 45.5133 128.859 45.7282L128.989 45.7329C133.471 46.2376 136.521 46.8778 137.841 47.5834C136.269 48.4198 132.109 49.1769 126.061 49.7236C119.616 50.2843 112.065 50.5881 104.226 50.6068H103.554H102.883C95.0385 50.5881 87.4881 50.2843 81.0477 49.7236C74.999 49.1769 70.8391 48.4198 69.2675 47.5834C70.5873 46.8778 73.6373 46.2376 78.119 45.7329V45.7469L78.2496 45.7282ZM70.8438 49.8638C72.3874 50.289 74.7332 50.6769 77.8205 51.0227C84.4008 51.8451 93.5461 52.2797 103.559 52.2516C113.576 52.2843 122.717 51.8451 129.292 51.0227C132.38 50.6769 134.726 50.289 136.269 49.8638C136.792 49.7236 137.309 49.5507 137.818 49.3544C136.39 56.1021 129.344 60.5881 121.891 65.3358C117.815 67.9339 113.6 70.6162 110.419 73.6956C107.388 76.504 105.019 80.0321 103.554 83.9106C102.09 80.0321 99.7207 76.504 96.6894 73.6956C93.5088 70.6162 89.2929 67.9293 85.217 65.3311C77.7646 60.5834 70.7179 56.0974 69.2908 49.3498C69.7991 49.5507 70.3215 49.7236 70.8438 49.8638Z" fill="#163C69"/>
<path d="M133.709 24.2282C133.942 24.6908 134.194 25.1441 134.455 25.5927C136.544 25.3591 139.38 25.0179 141.46 24.7002C140.928 24.3263 140.415 23.9338 139.926 23.5039C138.638 23.6675 135.369 24.0366 133.709 24.2282Z" fill="#191919"/>
<path d="M68.4419 78.3101C68.3533 77.6325 67.9662 77.0717 67.5931 76.5203C66.0121 74.1699 64.4125 71.8334 62.8223 69.4923C61.9268 68.1792 61.0454 66.8521 60.136 65.5483C59.693 64.9128 59.2453 64.2773 58.7976 63.6465C58.3359 62.9876 57.9068 62.2773 57.156 61.9362C57.1 61.9128 57.0441 61.8988 56.9928 61.8941C56.8435 61.4175 56.0321 61.4362 55.9808 61.9923C55.8502 63.4923 55.7849 64.9969 55.7476 66.5016C55.7149 67.7119 55.6357 68.9642 55.7056 70.1839C48.6496 71.3988 41.0853 73.7166 36.3424 79.4316C35.1392 80.8802 34.0339 82.6185 33.6795 84.4877C33.6096 84.8568 33.8194 85.226 34.1272 85.4222C34.0526 85.7026 33.9826 85.9783 33.95 86.2727C33.8987 86.7307 33.8847 87.1933 33.8567 87.6559C33.7914 88.6606 33.7774 89.6793 33.7821 90.6886C33.7868 91.6933 33.8194 92.6933 33.8754 93.698C33.9174 94.4223 33.88 95.1793 33.9174 95.9176C33.894 96.0017 33.8847 96.0952 33.894 96.198C34.0293 97.8242 34.435 99.4316 35.0832 100.927C35.4097 101.675 35.7921 102.404 36.2585 103.077C36.6735 103.679 37.1819 104.203 37.7228 104.693C38.2825 105.282 38.996 105.67 39.7562 105.95C39.9567 106.128 40.1619 106.305 40.3764 106.474C42.0693 107.796 44.0793 108.413 46.1173 108.988C48.3185 109.609 50.529 110.184 52.7582 110.703C54.9641 111.217 57.2306 111.801 59.5111 111.544C60.4065 111.446 60.4438 110.287 59.735 109.908C57.8322 108.899 55.645 108.534 53.565 108.048C51.5317 107.572 49.5077 107.062 47.4884 106.516C45.6416 106.016 43.8275 105.418 42.074 104.647C40.7122 104.048 39.4577 103.109 38.7115 101.796C38.7115 101.633 38.7208 101.469 38.7582 101.296C38.94 100.408 39.523 99.6419 40.0873 98.9643C42.545 96.0111 45.9447 93.7634 49.5031 92.3755C51.3731 91.6466 53.3412 91.1045 55.3279 90.8054C55.2906 90.8755 55.2672 90.9596 55.2626 91.0531C55.1833 92.2494 55.132 93.441 55.1087 94.6372C55.0947 95.2354 55.076 95.8382 55.0714 96.4363C55.0667 97.0531 55.076 97.7213 55.2299 98.3195C55.3559 98.8242 55.7896 99.0251 56.1627 98.9316C56.2746 99.1699 56.4705 99.3756 56.699 99.4737C57.2493 99.7073 57.7809 99.4223 58.0467 98.927C60.733 93.9036 63.3959 88.8662 66.0541 83.8241C66.7163 82.5624 67.4252 81.3241 68.0641 80.0531C68.3253 79.5063 68.5212 78.9222 68.4419 78.3101ZM66.3246 79.3148C65.7417 80.483 65.0888 81.6278 64.4638 82.7727C63.1627 85.1559 61.8662 87.5437 60.5651 89.9269C59.3292 92.198 58.1074 94.4737 56.8855 96.7494C56.8855 96.6466 56.8855 96.5391 56.8855 96.4363C56.8808 95.8382 56.8622 95.2354 56.8482 94.6372C56.8202 93.4363 56.7689 92.2494 56.6943 91.0484C56.6757 90.7774 56.5171 90.5998 56.3072 90.5064C56.8016 90.0391 56.6943 88.9737 55.8642 88.9643C53.5184 88.9409 51.2706 89.24 49.0274 89.9456C46.8215 90.6372 44.7369 91.6793 42.8341 92.9877C40.6749 94.4737 37.6062 97.0531 36.6922 99.8756C36.1932 98.8475 35.8061 97.7681 35.5729 96.6419C35.5869 96.5952 35.6056 96.5438 35.6102 96.4877C35.7315 95.0298 35.7268 93.5531 35.7035 92.0858C35.7175 91.6185 35.7268 91.1559 35.7315 90.6886C35.7361 89.6793 35.7175 88.6606 35.6569 87.6559C35.6289 87.198 35.6149 86.7307 35.5636 86.2727C35.5263 85.9176 35.4284 85.5811 35.3397 85.24C35.405 85.1652 35.4703 85.0811 35.5216 84.9877C36.2445 83.6652 36.8741 82.3568 37.8068 81.1652C38.7535 79.9503 39.8634 78.8942 41.0899 77.9643C43.7902 75.9175 46.9707 74.5764 50.1699 73.511C52.152 72.8521 54.162 72.3054 56.144 71.6418C56.172 71.6325 56.1953 71.6185 56.2233 71.6044C56.6197 71.7633 57.1513 71.5904 57.226 71.0577C57.4265 69.567 57.3099 68.0016 57.2679 66.4969C57.2446 65.7306 57.2213 64.9689 57.1793 64.2072C57.5617 64.8147 57.9581 65.4128 58.3452 66.0156C59.0634 67.1231 59.8003 68.2166 60.5324 69.3147C62.0388 71.5764 63.5404 73.8381 65.0561 76.0951C65.4245 76.6418 65.793 77.1886 66.1614 77.7353C66.3106 77.9549 66.5345 78.2166 66.5858 78.4923C66.6277 78.782 66.4459 79.0718 66.3246 79.3148Z" fill="#163C69"/>
<path d="M164.788 89.085C164.788 88.5804 164.783 88.071 164.778 87.5663C165.17 85.9215 165.021 84.286 164.503 82.7439C164.438 82.2953 164.354 81.856 164.224 81.4215C164.158 81.2018 163.972 81.0663 163.762 81.0149C163.244 80.0289 162.591 79.099 161.864 78.2579C160.684 76.8934 159.341 75.6738 157.82 74.6971C156.291 73.7111 154.477 72.627 152.583 72.8093C151.655 72.8981 150.634 73.4027 150.153 74.2298C149.86 74.7345 149.72 75.328 149.752 75.9121C149.734 75.9635 149.724 76.0196 149.72 76.085C149.622 78.2485 149.589 80.4121 149.557 82.5803C149.538 83.6691 149.524 84.7532 149.529 85.842C149.533 86.8888 149.393 88.0663 149.631 89.0897C149.664 89.2252 149.72 89.3327 149.785 89.4262C149.748 89.7533 149.813 90.057 149.995 90.3514C150.494 91.1645 151.361 91.571 152.219 91.9121C153.856 92.5664 155.526 93.071 156.888 94.2346C158.086 95.2579 159.042 96.529 159.793 97.9122C160.19 98.6411 160.525 99.4122 160.814 100.193C160.945 100.543 161.057 100.917 161.085 101.295C160.684 101.982 160.101 102.515 159.355 102.908C158.128 103.548 156.832 104.085 155.559 104.613C154.271 105.146 152.975 105.641 151.641 106.038C150.312 106.436 148.899 106.571 147.598 107.029C146.884 107.277 146.786 108.548 147.584 108.767C149.109 109.193 150.783 108.922 152.299 108.548C153.866 108.165 155.381 107.608 156.855 106.964C158.268 106.347 159.928 105.758 161.09 104.711C161.943 103.95 162.605 103.02 163.03 101.968C163.734 101.403 163.92 100.183 164.126 99.3748C164.382 98.3514 164.559 97.3234 164.69 96.272C164.9 94.6364 164.988 92.9776 164.769 91.3467C164.788 90.5897 164.788 89.842 164.788 89.085ZM159.574 93.3561C158.184 91.9121 156.501 91.043 154.575 90.5476C153.614 90.3 152.662 90.0523 151.748 89.6551C151.459 89.529 151.245 89.4962 151.133 89.342C151.175 89.2673 151.212 89.1832 151.235 89.085C151.473 88.0617 151.333 86.8888 151.338 85.842C151.343 84.7532 151.329 83.6691 151.31 82.5803C151.282 80.7299 151.245 78.8794 151.175 77.0289C151.319 76.8887 151.403 76.6831 151.357 76.4308C151.245 75.8373 151.926 75.3607 152.457 75.2252C153.161 75.0476 153.94 75.3747 154.561 75.6738C156.123 76.4261 157.55 77.5336 158.8 78.7345C160.553 80.4168 162.106 82.6645 162.433 85.1037C162.433 85.1177 162.433 85.1317 162.428 85.1458C162.372 85.9729 162.349 86.8046 162.339 87.6318V87.6364C162.335 88.1505 162.33 88.6598 162.335 89.1691C162.339 90.4449 162.325 91.7206 162.405 92.9963C162.479 94.1365 162.484 95.3047 162.61 96.4449C162.526 96.8467 162.433 97.2439 162.33 97.6411C161.673 96.057 160.772 94.5944 159.574 93.3561Z" fill="#163C69"/>
<path d="M77.0282 94.4626C76.5338 93.9019 76.0022 93.8972 75.3027 93.8738C74.7803 93.8552 74.2533 93.8645 73.7264 93.8505C72.5651 93.8224 71.3992 93.757 70.2427 93.6495C67.9575 93.4393 65.7003 93.1308 63.4525 92.6589C62.8835 92.5374 62.3146 93.0421 62.2446 93.5841C62.1607 94.2103 62.6037 94.6589 63.168 94.7944C65.4252 95.3458 67.729 95.7804 70.0421 95.9953C71.1614 96.0981 72.2853 96.1682 73.4139 96.2009C74.0388 96.2196 74.6684 96.2383 75.298 96.2103C75.9602 96.1823 76.5665 96.1729 77.0095 95.6075C77.252 95.3084 77.3033 94.771 77.0282 94.4626Z" fill="#163C69"/>
<path d="M147.406 89.8439C144.757 90.6803 142.048 91.2644 139.32 91.7738C137.981 92.0215 136.633 92.1943 135.286 92.3719C134.6 92.4607 133.915 92.5214 133.234 92.6102C132.506 92.7037 131.69 92.7224 131.116 93.2271C130.557 93.7177 130.589 94.6383 131.322 94.9514C132.026 95.2551 132.805 95.0962 133.546 95.0682C134.236 95.0448 134.922 94.9887 135.612 94.9233C137.039 94.7878 138.457 94.5308 139.861 94.2457C142.701 93.6663 145.448 92.7084 148.106 91.5682C149.216 91.0915 148.54 89.4887 147.406 89.8439Z" fill="#163C69"/>
</svg>
