<svg width="100" height="26" viewBox="0 0 100 26" fill="none" xmlns="http://www.w3.org/2000/svg">
<g clip-path="url(#clip0_3372_82306)">
<path d="M40.8701 3.63672H43.1352V14.451H47.0399V16.5857H40.8796L40.8701 3.63672Z" fill="#000083"/>
<path d="M52.2858 6.88311C53.4859 6.86821 54.6236 7.41098 55.3615 8.35008V7.07589H57.4747V16.6066H55.3615V15.3324C54.6236 16.2715 53.4859 16.8143 52.2858 16.7994C49.6512 16.7994 47.6514 14.566 47.6514 11.8389C47.6514 9.11179 49.6512 6.88311 52.2858 6.88311ZM52.6699 8.79205C50.9591 8.79205 49.8264 10.1274 49.8264 11.8389C49.8264 13.5504 50.9779 14.8904 52.6699 14.8904C54.3616 14.8904 55.5131 13.5551 55.5131 11.8389C55.5131 10.1227 54.3804 8.79205 52.6699 8.79205Z" fill="#000083"/>
<path d="M59.1191 14.9499L64.1564 8.97848H59.1948V7.07422H66.8858V8.75279L61.8676 14.7007H66.9996V16.6049H59.1191V14.9499Z" fill="#000083"/>
<path d="M72.3731 6.88311C73.5729 6.86821 74.7108 7.41098 75.4484 8.35008V7.07589H77.562V16.6066H75.4484V15.3324C74.7108 16.2715 73.5729 16.8143 72.3731 16.7994C69.7384 16.7994 67.7432 14.566 67.7432 11.8389C67.7432 9.11179 69.7384 6.88311 72.3731 6.88311ZM72.7569 8.79205C71.0461 8.79205 69.9136 10.1274 69.9136 11.8389C69.9136 13.5504 71.0652 14.8904 72.7569 14.8904C74.4486 14.8904 75.6001 13.5551 75.6001 11.8389C75.6001 10.1227 74.4676 8.79205 72.7569 8.79205Z" fill="#000083"/>
<path d="M83.5993 6.8818C84.798 6.86617 85.9346 7.40925 86.6701 8.34877V2.87109H88.7834V16.6053H86.6701V15.3311C85.9346 16.2706 84.798 16.8137 83.5993 16.798C80.9646 16.798 78.9648 14.5647 78.9648 11.8376C78.9648 9.11048 80.9646 6.8818 83.5993 6.8818ZM83.983 8.79074C82.2723 8.79074 81.1398 10.1261 81.1398 11.8376C81.1398 13.5491 82.2962 14.8891 83.983 14.8891C85.6702 14.8891 86.8263 13.5537 86.8263 11.8376C86.8263 10.1214 85.6938 8.79074 83.983 8.79074Z" fill="#000083"/>
<path d="M94.8206 6.88314C96.0193 6.86751 97.1562 7.41059 97.8914 8.35011V7.07592H100V16.6066H97.882V15.3324C97.1465 16.2719 96.0099 16.815 94.8112 16.7994C92.1765 16.7994 90.1768 14.566 90.1768 11.8389C90.1768 9.11182 92.1859 6.88314 94.8206 6.88314ZM95.2047 8.79208C93.4939 8.79208 92.3611 10.1274 92.3611 11.8389C92.3611 13.5504 93.5175 14.8904 95.2047 14.8904C96.8915 14.8904 98.0479 13.5551 98.0479 11.8389C98.0479 10.1227 96.9151 8.79208 95.2047 8.79208Z" fill="#000083"/>
<path d="M16.1451 26C15.916 26.0015 15.6904 25.9433 15.491 25.8312C13.7838 24.8512 1.13974 16.985 0.662237 16.7448C0.298842 16.5766 0.0506981 16.2319 0.00812228 15.8362V4.80278C-0.00128089 4.39093 0.203919 4.00335 0.551036 3.77733L0.642612 3.7254C1.86581 2.97254 5.96055 0.49326 6.60812 0.136295C6.75673 0.0487971 6.92597 0.00178034 7.09871 0C7.26068 0.00181834 7.41987 0.0418636 7.56316 0.116825C7.56316 0.116825 13.2932 3.82276 14.1697 4.15376C14.7847 4.43412 15.4553 4.57385 16.1321 4.56265C16.8989 4.57855 17.6566 4.39507 18.3299 4.03045C19.1868 3.58262 24.6617 0.136295 24.7206 0.136295C24.8586 0.0535731 25.0172 0.0108555 25.1784 0.0129805C25.3514 0.0138203 25.5208 0.0609047 25.669 0.149276C26.4147 0.55816 31.4907 3.64103 31.7065 3.77733C32.0635 3.99104 32.2799 4.37614 32.2756 4.78981V15.8232C32.2356 16.2199 31.9866 16.5656 31.6215 16.7319C31.144 16.9915 18.5392 24.8577 16.7992 25.8182C16.6012 25.9349 16.3755 25.9976 16.1451 26Z" fill="url(#paint0_linear_3372_82306)"/>
<path d="M16.0791 26.0015L16.1445 26.0015C16.3737 26.003 16.5992 25.9448 16.7986 25.8327C18.5059 24.8527 31.1434 16.9865 31.6209 16.7464C31.986 16.5801 32.2349 16.2344 32.275 15.8377V4.80431C32.2771 4.61753 32.2345 4.43291 32.1507 4.26562L16.0791 13.021V26.0015Z" fill="url(#paint1_linear_3372_82306)"/>
<path d="M16.0234 25.8442L15.9587 25.8441C15.732 25.8457 15.5088 25.7881 15.3116 25.6772C13.6225 24.7076 1.11967 16.9252 0.64724 16.6876C0.286013 16.5232 0.0397263 16.1811 0.000116348 15.7887V4.87279C-0.00196838 4.688 0.0401554 4.50535 0.123071 4.33984L16.0234 13.0019V25.8442Z" fill="url(#paint2_linear_3372_82306)"/>
</g>
<defs>
<linearGradient id="paint0_linear_3372_82306" x1="-0.0117878" y1="0.237589" x2="31.9594" y2="-0.0119868" gradientUnits="userSpaceOnUse">
<stop offset="1e-07" stop-color="#FF9200"/>
<stop offset="0.337553" stop-color="#F36D00"/>
<stop offset="0.56729" stop-color="#F83C72"/>
<stop offset="0.78" stop-color="#FC1CBE"/>
<stop offset="0.93" stop-color="#FE08ED"/>
<stop offset="1" stop-color="#FF00FF"/>
</linearGradient>
<linearGradient id="paint1_linear_3372_82306" x1="8.96921" y1="23.2882" x2="41.4453" y2="5.16547" gradientUnits="userSpaceOnUse">
<stop stop-color="#EE0A3F"/>
<stop offset="1" stop-color="#EE0A3F" stop-opacity="0"/>
</linearGradient>
<linearGradient id="paint2_linear_3372_82306" x1="12.1415" y1="18.6196" x2="-3.5126" y2="5.91044" gradientUnits="userSpaceOnUse">
<stop stop-color="#ED6600"/>
<stop offset="1" stop-color="#F98200"/>
</linearGradient>
<clipPath id="clip0_3372_82306">
<rect width="100" height="26" fill="white"/>
</clipPath>
</defs>
</svg>
