<svg width="110" height="104" viewBox="0 0 110 104" fill="none" xmlns="http://www.w3.org/2000/svg">
<mask id="mask0_3056_123392" style="mask-type:alpha" maskUnits="userSpaceOnUse" x="0" y="0" width="110" height="104">
<path d="M4 0H106C108.209 0 110 1.8625 110 4.16V99.84C110 102.138 108.209 104 106 104H4C1.79086 104 0 102.138 0 99.84V4.16C0 1.8625 1.79086 0 4 0Z" fill="white"/>
</mask>
<g mask="url(#mask0_3056_123392)">
<path d="M51.8458 39.0547H-7.27051V77.3205H51.8458V39.0547Z" fill="#F0F1F6"/>
<path d="M50.9956 34.8047H-6.37548C-6.86775 34.8047 -7.27051 35.2229 -7.27051 35.734V39.0564H51.8906V35.734C51.8906 35.2229 51.4878 34.8047 50.9956 34.8047Z" fill="#D4D9ED"/>
<path d="M-0.647461 37.9823C-0.0951762 37.9823 0.352539 37.5167 0.352539 36.9423C0.352539 36.368 -0.0951762 35.9023 -0.647461 35.9023C-1.19975 35.9023 -1.64746 36.368 -1.64746 36.9423C-1.64746 37.5167 -1.19975 37.9823 -0.647461 37.9823Z" fill="white"/>
<path d="M1.74684 45.0273H-1.38574V71.9784H1.74684V45.0273Z" fill="#D4D9ED"/>
<path d="M6.89333 57.1094H3.76074V71.9789H6.89333V57.1094Z" fill="#D4D9ED"/>
<path d="M12.0398 51.9961H8.90723V71.977H12.0398V51.9961Z" fill="#D4D9ED"/>
<path d="M17.1863 60.9648H14.0537V71.9776H17.1863V60.9648Z" fill="#D4D9ED"/>
<path d="M22.5564 64.3125H19.4238V71.9796H22.5564V64.3125Z" fill="#D4D9ED"/>
<path d="M46.0469 42.6992V44.1165H30.2721V42.6992H46.0469Z" fill="#E1E5F2"/>
<path d="M38.9707 47.3398V48.7571H30.2666V47.3398H38.9707Z" fill="#E1E5F2"/>
<path d="M41.96 51.9844V53.4016H30.2575V51.9844H41.96Z" fill="#E1E5F2"/>
<path d="M36.7383 56.6289V58.0462H30.2941V56.6289H36.7383Z" fill="#E1E5F2"/>
<path fill-rule="evenodd" clip-rule="evenodd" d="M69.92 105.862C70.1025 106.84 70.455 107.781 70.9525 108.608C71.325 109.232 71.775 109.785 72.275 110.259C73.025 110.968 73.88 111.488 74.765 111.829C75.6525 112.167 76.57 112.331 77.485 112.331C78.28 112.331 79.0775 112.209 79.8575 111.951C80.44 111.759 81.015 111.491 81.56 111.143C82.3775 110.623 83.1325 109.913 83.73 109.044C84.33 108.179 84.7675 107.159 84.9975 106.093L91.7975 75.0286C92.345 72.53 90.84 70.0418 88.435 69.4724C86.0325 68.903 83.64 70.4682 83.0925 72.9694L77.5784 98.2454L72.895 73.4816C72.42 70.9648 70.0725 69.3268 67.6525 69.8208C65.235 70.3174 63.6575 72.7588 64.135 75.273L69.92 105.862Z" fill="#1FADEB"/>
<path fill-rule="evenodd" clip-rule="evenodd" d="M100.665 66.7894C100.185 66.0562 99.5253 65.4348 98.7103 65.0032C96.1253 63.6382 92.9653 64.7094 91.6528 67.3978C91.2753 68.17 90.3828 68.872 89.2353 68.703C86.3653 68.2818 83.7103 70.3592 83.3028 73.3414C82.8953 76.3288 84.8928 79.09 87.7628 79.5112C93.2003 80.3146 98.5253 77.4312 101.01 72.3404C101.91 70.5022 101.71 68.3832 100.665 66.7894Z" fill="#FF9A89"/>
<path fill-rule="evenodd" clip-rule="evenodd" d="M72.1548 63.3519C72.9598 63.1049 73.7323 62.7435 74.4123 62.2339C77.2198 60.1435 78.3198 56.2825 76.9523 53.1365L76.9323 53.0897C76.3698 51.8079 75.5923 50.6431 74.6623 49.7513C73.7448 48.8725 73.0023 47.8351 72.4598 46.6989C71.7098 45.1285 71.3423 43.3709 71.4173 41.5795C71.4823 40.0351 71.2173 38.5141 70.6623 37.1179C70.1098 35.7243 69.2648 34.4529 68.1723 33.4051C66.8898 32.1779 65.8948 30.4229 65.3598 28.5717C65.2073 28.0465 64.6223 27.8125 64.1623 28.0803L32.5648 29.1177C30.3098 29.1983 28.6523 31.3407 29.0573 33.6495C29.3773 35.8881 29.0423 38.3503 28.0848 40.2561C27.4048 41.6081 27.0248 43.0823 26.9498 44.5695C26.8748 46.0957 27.1173 47.6401 27.6873 49.0883C28.3423 50.7497 28.5673 52.5359 28.3723 54.2753C28.2298 55.5363 27.8698 56.7739 27.2923 57.9231H27.2898C27.1623 58.1805 27.0448 58.4457 26.9373 58.7213C26.9023 58.8123 26.8698 58.9033 26.8373 58.9943C25.6148 62.5147 27.9548 66.2925 31.5298 66.7319L32.5198 66.8541C45.8223 68.4843 59.3073 67.2935 72.1548 63.3519Z" fill="#212121"/>
<path fill-rule="evenodd" clip-rule="evenodd" d="M53.4748 62.5613L60.6973 62.0231C64.6048 61.7319 67.5448 58.2011 67.2648 54.1399L66.4498 42.3125L52.1523 43.3759L53.4748 62.5613Z" fill="#2B140E"/>
<path fill-rule="evenodd" clip-rule="evenodd" d="M71.0028 89.1444C70.8978 86.5574 71.1453 83.9678 71.7328 81.451L72.7653 77.0336C73.6353 73.313 71.4678 69.5534 67.9003 68.6122C67.8778 68.6044 67.8528 68.5992 67.8278 68.5914L52.6028 64.6758L36.9703 68.6278C36.9453 68.633 36.9203 68.6408 36.8978 68.646C33.3053 69.5794 31.1153 73.3598 31.9903 77.1012L33.9003 85.273C35.9978 94.243 37.0578 103.442 37.0528 112.674L37.0478 122.255H67.6953L67.6928 105.605C67.6928 102.898 68.2603 100.223 69.3553 97.766C70.5578 95.0698 71.1228 92.1136 71.0028 89.1444Z" fill="#1FADEB"/>
<path fill-rule="evenodd" clip-rule="evenodd" d="M55.0852 79.3788C61.1452 79.3996 66.1277 74.47 66.5302 68.2586L52.6027 64.6758L43.6277 66.9456C43.6202 67.1094 43.6152 67.2784 43.6152 67.4474C43.6152 74.0358 48.7652 79.3554 55.0852 79.3788Z" fill="#F5907F"/>
<path fill-rule="evenodd" clip-rule="evenodd" d="M51.395 52.0092C54.1475 51.5828 56.645 53.6394 56.91 56.4812L58.0175 68.3034C58.1425 69.6554 57.735 71.0022 56.89 72.0344L56.88 72.0448C55.195 74.1014 52.245 74.3952 50.215 72.7078C49.1975 71.8654 48.555 70.6278 48.4275 69.2836L47.3475 57.7292C47.1025 55.1162 48.9 52.3966 51.395 52.0092Z" fill="#F5907F"/>
<path fill-rule="evenodd" clip-rule="evenodd" d="M50.8622 16.2091C55.0472 15.1847 59.2397 17.8861 60.2222 22.2411L62.5197 32.4305C62.8222 33.78 63.4272 35.0357 64.2797 36.0991C65.1347 37.1625 65.7397 38.4184 66.0422 39.7677C66.7647 42.9762 66.7922 46.3094 66.1172 49.5282C65.1947 53.9378 61.9147 57.4036 57.6897 58.4332L56.0772 58.8284C50.8622 60.0998 45.4272 57.9366 42.3572 53.3684L41.3822 51.9176C40.2922 50.2952 39.5122 48.4752 39.0797 46.5485C38.1697 42.4821 36.6022 35.4881 36.3747 34.4793C34.3522 25.4833 38.9447 19.5007 46.1447 17.3583C46.3347 17.3011 46.5247 17.2725 46.7147 17.2257L50.8622 16.2091Z" fill="#FF9A89"/>
<path fill-rule="evenodd" clip-rule="evenodd" d="M46.9727 40.1689C46.3452 40.3275 45.8277 39.6359 46.1352 39.0457C46.5027 38.3385 47.1427 37.7951 47.9552 37.5949C48.7552 37.3973 49.5527 37.5793 50.1802 38.0291C50.7127 38.4061 50.5527 39.2667 49.9277 39.4253L46.9727 40.1689Z" fill="#001431"/>
<path fill-rule="evenodd" clip-rule="evenodd" d="M58.4529 37.2741C57.8154 37.4353 57.2804 36.7281 57.6004 36.1301C57.9679 35.4385 58.6004 34.9055 59.4029 34.7079C60.1929 34.5129 60.9779 34.6897 61.6029 35.1213C62.1479 35.5009 61.9829 36.3849 61.3454 36.5461L58.4529 37.2741Z" fill="#001431"/>
<path fill-rule="evenodd" clip-rule="evenodd" d="M46.8059 14.0179L42.5134 15.0631C38.3784 16.0719 34.6459 18.3885 31.8309 21.6931L31.4859 22.0987C28.5934 25.4943 27.7234 30.2679 29.2234 34.5319C30.0609 36.9109 30.1734 39.5031 29.5459 41.9549L29.2759 43.0027C29.0759 43.7905 29.1934 44.6303 29.6009 45.3245L38.1109 59.7935C42.7359 59.5647 45.3159 53.0049 44.2584 48.3119C43.9359 46.8793 43.9534 45.2699 44.2634 43.7229C44.5734 42.1785 45.1734 40.6965 46.0209 39.5161V39.5135C46.8659 38.3331 47.4684 36.8511 47.7784 35.3067C48.0859 33.7597 48.1034 32.1503 47.7809 30.7177C47.4834 29.3969 47.4759 27.9279 47.7159 26.4979C47.9159 25.3253 48.5284 24.3425 49.3684 23.6821C49.4759 23.7029 49.5859 23.7289 49.6934 23.7601C50.6684 28.0813 54.8259 30.7619 58.9809 29.7479L61.9984 29.0121C63.0984 29.2045 63.9884 30.0573 64.2434 31.1909L66.2784 36.2687L65.0584 27.0517C63.8534 17.9647 55.3934 11.9223 46.8059 14.0179Z" fill="#212121"/>
<path fill-rule="evenodd" clip-rule="evenodd" d="M60.0973 45.8793C60.9998 45.6531 61.7698 46.5449 61.4973 47.4653C60.8523 49.6493 59.1623 51.4277 56.8673 51.9919C54.5973 52.5483 52.3448 51.7709 50.8273 50.1537C50.1798 49.4647 50.4748 48.3077 51.3748 48.0789L60.0973 45.8793Z" fill="#0E0F2D"/>
<path fill-rule="evenodd" clip-rule="evenodd" d="M51.3748 48.0775L59.4598 46.0391L59.8248 47.6563C59.9498 48.2075 59.6198 48.7613 59.0898 48.8887L51.4673 50.7477C51.2423 50.5657 51.0273 50.3655 50.8273 50.1523C50.1798 49.4633 50.4748 48.3063 51.3748 48.0775Z" fill="#F5F5F5"/>
<path fill-rule="evenodd" clip-rule="evenodd" d="M32.78 71.6873L17.61 92.1935C16.9025 93.1451 16.3675 94.1955 16.0175 95.2823C15.6675 96.3691 15.5 97.4897 15.5 98.5817C15.5 99.8973 15.7375 101.179 16.1775 102.367C17.0625 104.762 19.645 105.955 21.9475 105.037C24.2475 104.117 25.3975 101.431 24.5125 99.0367C24.455 98.8833 24.4275 98.7247 24.43 98.5817C24.43 98.4621 24.445 98.3529 24.4825 98.2385C24.52 98.1267 24.575 98.0045 24.685 97.8563L39.8575 77.3501C41.36 75.3195 40.995 72.4023 39.0425 70.8397C37.0875 69.2745 34.285 69.6541 32.78 71.6873Z" fill="#1FADEB"/>
<path d="M52.818 115.081H35.0655C33.5405 115.081 32.223 113.979 31.8955 112.429L25.6455 82.9243C25.368 81.6061 26.333 80.3555 27.633 80.3555H45.383C46.908 80.3555 48.228 81.4579 48.5555 83.0075L54.803 112.512C55.083 113.83 54.118 115.081 52.818 115.081Z" fill="#E1E5F2"/>
<path fill-rule="evenodd" clip-rule="evenodd" d="M55.7899 120.284H32.1399C30.3624 120.284 28.8224 118.997 28.4399 117.193L21.1549 82.7843C20.8299 81.2477 21.9549 79.7891 23.4699 79.7891H44.1724C45.9499 79.7891 47.4874 81.0761 47.8699 82.8805L55.7899 120.284Z" fill="#005FBF"/>
<path d="M38.9453 79.7891L47.5203 120.284H50.0603L41.4853 79.7891H38.9453Z" fill="#D4D9ED"/>
<path fill-rule="evenodd" clip-rule="evenodd" d="M16.1773 102.367C16.8748 104.25 18.0773 105.924 19.7073 107.154C20.5223 107.767 21.4473 108.267 22.4473 108.605C23.4473 108.948 24.5248 109.127 25.6248 109.127H49.8473C52.3123 109.127 54.3123 107.05 54.3123 104.484C54.3123 101.92 52.3123 99.84 49.8473 99.84H25.6248C25.4523 99.84 25.3298 99.8166 25.2248 99.7802C25.0673 99.7256 24.9398 99.6424 24.8123 99.5176C24.6898 99.3928 24.5798 99.2212 24.5123 99.0366C23.6273 96.6446 21.0448 95.4486 18.7448 96.369C16.4423 97.2868 15.2923 99.9752 16.1773 102.367Z" fill="#1FADEB"/>
<path fill-rule="evenodd" clip-rule="evenodd" d="M55.4327 97.7148H51.9852C49.4102 97.7148 47.3252 99.8832 47.3252 102.561V109.09H53.4077C56.1727 109.09 58.4177 106.758 58.4177 103.879V100.817C58.4177 99.1032 57.0802 97.7148 55.4327 97.7148Z" fill="#FF9A89"/>
</g>
</svg>
