<svg width="104" height="92" viewBox="0 0 104 92" fill="none" xmlns="http://www.w3.org/2000/svg">
<path d="M38.998 63.9288C38.998 62.136 37.458 61.1064 35.897 60.5448C34.168 59.9112 32.026 58.9536 32.215 56.7576C32.215 55.1664 33.762 53.568 33.377 51.9768C32.796 48.1896 28.183 49.9392 26.02 48.1896C25.341 47.52 24.809 46.7064 24.473 45.7992C24.088 44.208 24.277 37.4328 24.088 33.4512C23.122 34.0488 19.244 34.6464 20.406 30.8592C21.568 26.8776 23.892 31.4568 24.669 31.4568C25.831 31.2552 25.25 26.8776 25.25 25.4808C28.736 24.2856 29.898 22.2912 31.445 18.9072C32.523 19.5696 33.552 20.304 34.546 21.096C35.512 22.0896 36.87 23.8896 37.066 25.8768C37.171 25.776 37.269 25.6752 37.36 25.56C37.829 29.5992 37.843 31.6584 36.681 36.036C36.317 38.2896 34.833 40.5576 32.614 41.0184C31.501 41.1912 30.367 41.0544 29.324 40.6224C28.225 40.1904 27.28 39.4272 26.608 38.4336C26.097 38.7864 27.98 41.8968 31.2 42.1128C31.298 43.6392 31.578 45.144 32.033 46.5984C32.033 46.8 32.229 46.9944 32.418 46.8C33.965 46.404 37.451 45.8064 37.843 45.2088C36.156 45.324 34.476 45.5184 32.81 45.8064C32.467 44.5752 32.131 43.3512 31.788 42.12C33.391 42.0768 34.903 41.3136 35.911 40.0248C36.618 39.0024 37.143 37.8504 37.458 36.6408C38.557 33.2496 38.452 28.6632 37.689 25.128C38.403 24.0624 39.299 21.9096 37.843 18.9072C36.303 15.4728 32.516 13.3488 27.966 14.1264C17.116 15.7176 15.569 25.2792 17.312 32.0544C17.69 33.3792 18.355 34.6104 19.251 35.64C23.122 31.6584 23.122 37.6344 21.19 38.0304C21.771 38.628 22.548 39.2256 23.129 39.8232V41.22C19.93 42.5376 17.186 44.7408 16.444 48.24C15.142 48.312 13.903 48.4488 12.664 48.5928C9.94801 48.9888 7.63101 50.5872 7.23901 51.1848C7.80601 50.7456 13.413 49.68 16.339 48.8952C16.241 52.2 20.616 53.1792 21.379 53.5752C23.283 55.1448 22.079 56.6064 21.575 60.7464C20.994 64.9296 26.608 65.1312 27.189 65.3256C29.905 65.9232 28.932 68.7096 28.736 70.704C28.54 72.2952 29.317 77.076 34.35 75.6864C38.032 74.6928 37.066 70.9056 36.87 69.1128C37.255 67.1112 38.998 65.916 38.998 63.9288ZM19.433 24.2784C19.048 24.2784 20.154 20.6496 21.372 19.1016C22.492 17.6688 25.439 15.7176 25.824 16.1136C26.02 16.3152 24.242 17.4456 22.142 19.9008C20.518 21.8016 19.629 24.2784 19.433 24.2784ZM30.668 52.9704C30.472 52.9704 30.472 51.9768 30.283 51.5736C30.087 51.1776 29.702 50.976 29.506 50.7744C28.68 50.6088 27.833 50.544 26.986 50.5728C26.048 50.4576 25.166 50.04 24.473 49.3776C23.696 48.78 23.311 46.7856 23.507 46.7856C23.703 46.7856 24.284 48.3768 24.865 48.9744C26.307 50.4576 28.337 49.1616 29.898 50.3712C30.36 50.6232 30.71 51.0552 30.864 51.5664C30.864 51.9768 30.864 52.7688 30.668 52.9704ZM36.093 64.3248C35.897 64.3248 35.708 63.3312 35.512 62.928C35.281 62.5608 34.945 62.28 34.546 62.1288C34.112 61.8912 33.657 61.6968 33.188 61.5312C32.803 61.3296 31.83 60.5376 32.222 60.336C32.418 60.1344 32.999 60.732 33.58 60.9336C33.965 61.1352 34.546 61.1352 34.938 61.3296C35.456 61.5672 35.869 61.992 36.1 62.5248C36.478 63.3312 36.478 64.3248 36.093 64.3248Z" fill="#163C69"/>
<path d="M75.027 47.7864C68.055 51.5736 62.434 49.3776 55.658 47.7864C49.155 46.116 42.967 43.308 36.485 45.396C36.485 45.396 41.91 55.3608 33.965 56.7504C33.384 56.8512 32.796 56.9016 32.215 56.9088C32.138 58.9896 34.217 59.9256 35.904 60.5376C37.465 61.1064 39.005 62.1288 39.005 63.9216C39.005 65.916 37.262 67.1112 36.877 69.0984C37.073 70.8912 38.039 74.6784 34.357 75.672C29.324 77.0688 28.547 72.288 28.743 70.6896C28.939 68.6952 29.905 65.9088 27.196 65.3112C26.615 65.1096 21.001 64.9152 21.582 60.732C21.827 58.7016 22.52 56.3832 22.408 55.2888C17.382 53.8344 12.447 52.0632 7.63799 49.9752C0.665989 54.9576 -0.496011 63.72 0.280989 72.8856C0.665989 78.66 4.73299 90.4176 4.73299 90.4176C25.068 94.2048 41.343 87.0336 41.343 87.0336C41.728 86.6376 44.059 83.844 44.633 82.6488C46.761 79.2648 50.247 72.684 48.896 67.1112C47.734 62.532 43.282 56.7504 41.539 54.5616C41.343 54.36 41.728 53.9712 41.924 54.1656C44.206 56.4048 51.416 61.9344 50.639 71.1C74.656 66.7152 86.857 50.3784 86.857 50.3784C78.898 50.3784 75.027 47.7864 75.027 47.7864ZM41.903 77.6736C42.68 77.472 43.646 77.6736 43.45 77.8752C42.484 78.8688 41.707 78.4728 40.93 78.8688C38.991 79.668 38.606 80.8632 37.64 80.8632C37.255 80.8632 38.606 79.0704 39.187 78.6744C39.957 78.0192 40.916 77.6664 41.903 77.6736Z" fill="#BC8CE4"/>
<path d="M32.992 27.072C33.188 27.072 35.708 31.2552 34.931 33.6456C34.35 35.4384 32.411 33.6456 32.411 33.6456C32.922 33.624 33.398 33.408 33.769 33.048C34.35 32.4504 33.629 29.8656 33.405 29.1024C33.181 28.4472 33.041 27.7632 32.992 27.072Z" fill="#163C69"/>
<path d="M30.864 26.0712C30.234 25.8552 29.555 25.8552 28.925 26.0712C28.337 26.244 27.567 26.4672 26.986 26.6688C26.958 26.6112 26.916 25.7112 28.12 25.416C28.589 25.3152 29.065 25.3224 29.534 25.4304C30.003 25.5888 30.451 25.7976 30.864 26.0712Z" fill="#163C69"/>
<path d="M33.965 25.6752C34.035 25.4448 34.168 25.236 34.35 25.0776C34.567 24.876 34.833 24.7392 35.127 24.6816C35.841 24.6024 35.925 24.8544 36.485 25.6752H35.904C35.708 25.6752 35.323 25.4736 35.127 25.4736C34.728 25.4736 34.336 25.5384 33.965 25.6752Z" fill="#163C69"/>
<path d="M32.803 36.432C32.95 36.432 31.907 38.448 30.087 37.8288C28.281 37.2096 28.393 35.0352 28.54 35.0352C28.736 35.0352 29.121 36.432 30.283 36.828C31.445 37.224 32.607 36.432 32.803 36.432Z" fill="#163C69"/>
<path d="M28.344 29.0592C28.344 29.3904 28.603 29.6568 28.925 29.6568C29.247 29.6568 29.506 29.3904 29.506 29.0592C29.506 28.728 29.247 28.4616 28.925 28.4616C28.603 28.4616 28.344 28.728 28.344 29.0592Z" fill="#163C69"/>
<path d="M34.546 28.4616C34.546 28.7928 34.805 29.0592 35.127 29.0592C35.449 29.0592 35.708 28.7928 35.708 28.4616C35.708 28.1304 35.449 27.864 35.127 27.864C34.805 27.864 34.546 28.1304 34.546 28.4616Z" fill="#163C69"/>
<path d="M38.998 32.2488C39.061 34.2432 38.662 36.2232 37.836 38.0232C38.592 38.3472 39.369 38.6136 40.16 38.8224C41.126 39.024 41.903 36.0288 42.099 35.0352C42.288 34.6392 40.356 33.048 38.998 32.2488Z" fill="#FFA502"/>
<path d="M22.534 33.2424C21.757 32.8464 19.244 34.8336 18.467 35.8344C17.501 36.6336 18.663 39.2184 19.048 40.0176C19.629 40.8168 22.338 39.42 23.115 39.024C23.892 38.4264 23.115 33.6456 22.534 33.2424ZM20.21 36.432C19.902 37.08 19.825 38.4264 19.629 38.4264C19.433 38.4264 19.146 37.6632 19.048 37.2312C19.027 36.288 19.559 35.4168 20.406 35.0424C20.791 34.8408 21.526 34.452 21.568 34.6464C21.666 35.0712 20.476 35.8632 20.21 36.432Z" fill="#FFA502"/>
<path d="M61.657 0.575998C59.333 4.1616 57.009 7.7472 54.881 11.5344C54.104 10.1376 53.138 8.9424 52.361 7.5528C51.976 6.9552 50.625 7.5456 51.003 8.1504C51.997 9.7272 53.131 11.5344 54.104 13.1328C54.3 13.5288 55.259 13.3272 55.462 12.9312C57.604 8.7984 59.998 4.8024 62.63 0.979199C63.211 0.374399 62.049 0.172798 61.657 0.575998Z" fill="#53A5A8"/>
<path d="M56.428 3.7584C54.237 3.276 51.948 3.8664 50.233 5.3496C48.798 6.7392 48.021 8.7048 48.105 10.728C48.329 13.3128 50.422 15.3288 52.753 15.9048C55.35 16.5816 58.101 16.0776 60.306 14.508C62.847 12.5496 63.211 9.1296 62.049 6.1416C61.853 5.7456 60.691 6.1416 60.691 6.5376C64.485 17.2584 51.542 17.928 49.848 11.52C49.267 9.7272 49.652 8.136 50.625 6.5376C51.059 5.688 51.738 4.9968 52.564 4.5432C53.509 4.0104 54.615 3.8664 55.665 4.1472C56.001 4.176 56.337 4.1112 56.631 3.9456C56.428 4.1616 56.82 3.7584 56.428 3.7584Z" fill="#53A5A8"/>
<path d="M17.501 89.8272C16.605 86.0472 16.276 82.152 16.535 78.2712C16.92 74.2896 17.501 70.3008 17.116 66.5208C16.955 64.3608 16.367 62.2584 15.373 60.3432C15.198 59.9976 15.1 60.2064 15.177 60.3432C15.954 62.136 16.143 64.1304 16.339 66.1176C16.535 68.112 14.904 79.8696 15.177 83.8512C15.324 86.0472 15.562 88.4304 16.724 90.2232C17.109 90.6192 17.69 90.4248 17.501 89.8272Z" fill="#163C69"/>
<path d="M87.613 17.9064C87.032 20.2968 85.968 27.4536 85.87 28.6632C85.772 29.8512 85.674 31.0536 86.066 32.0472C86.262 32.2488 86.647 32.2488 86.647 32.0472C87.032 31.0536 87.228 26.2728 87.424 25.0776C87.62 22.6872 88.005 20.4984 88.201 18.108C87.998 17.5032 87.613 17.5032 87.613 17.9064Z" fill="#163C69"/>
<path d="M96.909 20.4984C95.404 22.0752 94.165 23.8896 93.227 25.8768C92.646 26.8704 90.903 31.6512 91.099 32.8464C91.155 33.048 91.358 33.1632 91.561 33.1056C91.603 33.0912 91.645 33.0696 91.68 33.0408C92.065 32.6448 92.842 30.2472 93.038 29.6568C93.423 28.6632 95.362 24.48 95.943 23.4792C96.524 22.68 96.909 21.6864 97.49 20.8872C97.49 20.4984 97.105 20.0952 96.909 20.4984Z" fill="#163C69"/>
<path d="M85.289 49.7808C88.971 50.3784 92.065 47.1888 93.619 44.2008C95.747 40.6152 97.49 36.828 99.429 33.2424C100.01 32.4432 101.753 30.0528 102.145 29.6568C102.537 29.2608 102.922 29.0592 103.111 28.4616C103.307 28.26 102.915 27.864 102.726 27.864C101.949 28.0656 99.975 29.2392 96.531 36.2304C95.551 38.2176 91.302 49.1832 85.0999 49.1832C85.0929 49.3848 85.093 49.7808 85.289 49.7808Z" fill="#163C69"/>
<path d="M84.127 33.048C83.035 31.0896 79.675 27.0432 77.54 27.6696C75.986 27.9 72.892 32.3856 72.892 34.6392C72.892 35.2368 73.669 35.0352 73.858 34.8408C73.984 34.6464 76.07 29.4984 77.925 28.8648C79.675 28.5624 81.838 31.2984 83.931 33.444C84.127 33.444 84.323 33.2424 84.127 33.048Z" fill="#163C69"/>
<path d="M72.122 36.036C71.156 36.8352 70.764 38.2248 70.575 39.42C70.19 43.0056 73.676 45.5976 76.385 47.1888C76.966 47.5848 77.743 48.1824 78.324 47.988C79.682 47.3904 77.358 46.1952 76.966 45.9936C75.489 45.108 74.117 44.0352 72.899 42.804C71.114 40.968 71.716 38.8728 72.514 36.432C72.507 36.036 72.311 35.8344 72.122 36.036Z" fill="#163C69"/>
<path d="M74.635 36.036C75.797 37.0296 76.574 35.2368 77.351 34.8408C78.1 34.5744 78.926 34.9128 79.283 35.64C79.479 36.036 79.668 37.6344 80.249 37.6344C81.215 37.6344 80.83 36.0432 80.634 35.4456C80.053 33.6528 77.533 32.8536 76.182 34.452C75.797 34.848 75.405 36.0432 74.635 35.8488C74.635 35.6328 74.446 35.8344 74.635 36.036Z" fill="#163C69"/>
</svg>
